<?xml version="1.0" encoding="utf-8" standalone="no"?>
<!DOCTYPE svg PUBLIC "-//W3C//DTD SVG 1.1//EN"
  "http://www.w3.org/Graphics/SVG/1.1/DTD/svg11.dtd">
<svg xmlns:xlink="http://www.w3.org/1999/xlink" width="508.129532pt" height="275.344045pt" viewBox="0 0 508.129532 275.344045" xmlns="http://www.w3.org/2000/svg" version="1.1">
 <metadata>
  <rdf:RDF xmlns:dc="http://purl.org/dc/elements/1.1/" xmlns:cc="http://creativecommons.org/ns#" xmlns:rdf="http://www.w3.org/1999/02/22-rdf-syntax-ns#">
   <cc:Work>
    <dc:type rdf:resource="http://purl.org/dc/dcmitype/StillImage"/>
    <dc:date>2023-11-03T13:10:29.262477</dc:date>
    <dc:format>image/svg+xml</dc:format>
    <dc:creator>
     <cc:Agent>
      <dc:title>Matplotlib v3.7.1, https://matplotlib.org/</dc:title>
     </cc:Agent>
    </dc:creator>
   </cc:Work>
  </rdf:RDF>
 </metadata>
 <defs>
  <style type="text/css">*{stroke-linejoin: round; stroke-linecap: butt}</style>
 </defs>
 <g id="figure_1">
  <g id="patch_1">
   <path d="M 0 275.344045 
L 508.129532 275.344045 
L 508.129532 0 
L 0 0 
L 0 275.344045 
z
" style="fill: none"/>
  </g>
  <g id="axes_1">
   <g id="patch_2">
    <path d="M 61.559453 36.96378 
L 500.929532 36.96378 
L 500.929532 7.2 
L 61.559453 7.2 
L 61.559453 36.96378 
z
" style="fill: none"/>
   </g>
   <g id="matplotlib.axis_1">
    <g id="xtick_1">
     <g id="line2d_1">
      <defs>
       <path id="m4db839acdb" d="M 0 0 
L 0 6 
" style="stroke: #262626; stroke-width: 1.25"/>
      </defs>
      <g>
       <use xlink:href="#m4db839acdb" x="128.066101" y="36.96378" style="fill: #262626; stroke: #262626; stroke-width: 1.25"/>
      </g>
     </g>
    </g>
    <g id="xtick_2">
     <g id="line2d_2">
      <g>
       <use xlink:href="#m4db839acdb" x="197.192557" y="36.96378" style="fill: #262626; stroke: #262626; stroke-width: 1.25"/>
      </g>
     </g>
    </g>
    <g id="xtick_3">
     <g id="line2d_3">
      <g>
       <use xlink:href="#m4db839acdb" x="266.319012" y="36.96378" style="fill: #262626; stroke: #262626; stroke-width: 1.25"/>
      </g>
     </g>
    </g>
    <g id="xtick_4">
     <g id="line2d_4">
      <g>
       <use xlink:href="#m4db839acdb" x="335.445468" y="36.96378" style="fill: #262626; stroke: #262626; stroke-width: 1.25"/>
      </g>
     </g>
    </g>
    <g id="xtick_5">
     <g id="line2d_5">
      <g>
       <use xlink:href="#m4db839acdb" x="404.571924" y="36.96378" style="fill: #262626; stroke: #262626; stroke-width: 1.25"/>
      </g>
     </g>
    </g>
    <g id="xtick_6">
     <g id="line2d_6">
      <g>
       <use xlink:href="#m4db839acdb" x="473.698379" y="36.96378" style="fill: #262626; stroke: #262626; stroke-width: 1.25"/>
      </g>
     </g>
    </g>
   </g>
   <g id="matplotlib.axis_2"/>
   <g id="patch_3">
    <path d="M 217.774953 10.176378 
L 217.774953 33.987402 
L 314.936621 33.987402 
L 314.936621 10.176378 
L 217.774953 10.176378 
z
" clip-path="url(#p720fc4faac)" style="fill: #502042; stroke: #222222; stroke-width: 1.5; stroke-linejoin: miter"/>
   </g>
   <g id="line2d_7">
    <path d="M 217.774953 22.08189 
L 81.53082 22.08189 
" clip-path="url(#p720fc4faac)" style="fill: none; stroke: #222222; stroke-width: 1.5; stroke-linecap: round"/>
   </g>
   <g id="line2d_8">
    <path d="M 314.936621 22.08189 
L 454.772725 22.08189 
" clip-path="url(#p720fc4faac)" style="fill: none; stroke: #222222; stroke-width: 1.5; stroke-linecap: round"/>
   </g>
   <g id="line2d_9">
    <path d="M 81.53082 16.129134 
L 81.53082 28.034646 
" clip-path="url(#p720fc4faac)" style="fill: none; stroke: #222222; stroke-width: 1.5; stroke-linecap: round"/>
   </g>
   <g id="line2d_10">
    <path d="M 454.772725 16.129134 
L 454.772725 28.034646 
" clip-path="url(#p720fc4faac)" style="fill: none; stroke: #222222; stroke-width: 1.5; stroke-linecap: round"/>
   </g>
   <g id="line2d_11">
    <defs>
     <path id="m952894286f" d="M 0 3.535534 
L 2.12132 0 
L 0 -3.535534 
L -2.12132 0 
z
" style="stroke: #222222; stroke-linejoin: miter"/>
    </defs>
    <g clip-path="url(#p720fc4faac)">
     <use xlink:href="#m952894286f" x="480.958165" y="22.08189" style="fill: #222222; stroke: #222222; stroke-linejoin: miter"/>
     <use xlink:href="#m952894286f" x="466.904674" y="22.08189" style="fill: #222222; stroke: #222222; stroke-linejoin: miter"/>
    </g>
   </g>
   <g id="line2d_12">
    <path d="M 265.724577 10.176378 
L 265.724577 33.987402 
" clip-path="url(#p720fc4faac)" style="fill: none; stroke: #222222; stroke-width: 1.5; stroke-linecap: round"/>
   </g>
   <g id="patch_4">
    <path d="M 61.559453 36.96378 
L 500.929532 36.96378 
" style="fill: none; stroke: #262626; stroke-width: 1.25; stroke-linejoin: miter; stroke-linecap: square"/>
   </g>
  </g>
  <g id="axes_2">
   <g id="patch_5">
    <path d="M 61.559453 225.467717 
L 500.929532 225.467717 
L 500.929532 56.806299 
L 61.559453 56.806299 
L 61.559453 225.467717 
z
" style="fill: none"/>
   </g>
   <g id="matplotlib.axis_3">
    <g id="xtick_7">
     <g id="line2d_13">
      <path d="M 128.066101 225.467717 
L 128.066101 56.806299 
" clip-path="url(#p4436f57db3)" style="fill: none; stroke: #cccccc; stroke-linecap: round"/>
     </g>
     <g id="line2d_14">
      <defs>
       <path id="m6f46009d85" d="M 0 0 
L 0 6 
" style="stroke: #2219f0; stroke-width: 1.25"/>
      </defs>
      <g>
       <use xlink:href="#m6f46009d85" x="128.066101" y="225.467717" style="fill: #2219f0; stroke: #2219f0; stroke-width: 1.25"/>
      </g>
     </g>
     <g id="text_1">
      <!-- −2 -->
      <g style="fill: #2219f0" transform="translate(119.22989 246.062326) scale(0.155 -0.155)">
       <defs>
        <path id="ArialMT-2212" d="M 3381 1997 
L 356 1997 
L 356 2522 
L 3381 2522 
L 3381 1997 
z
" transform="scale(0.015625)"/>
        <path id="ArialMT-32" d="M 3222 541 
L 3222 0 
L 194 0 
Q 188 203 259 391 
Q 375 700 629 1000 
Q 884 1300 1366 1694 
Q 2113 2306 2375 2664 
Q 2638 3022 2638 3341 
Q 2638 3675 2398 3904 
Q 2159 4134 1775 4134 
Q 1369 4134 1125 3890 
Q 881 3647 878 3216 
L 300 3275 
Q 359 3922 746 4261 
Q 1134 4600 1788 4600 
Q 2447 4600 2831 4234 
Q 3216 3869 3216 3328 
Q 3216 3053 3103 2787 
Q 2991 2522 2730 2228 
Q 2469 1934 1863 1422 
Q 1356 997 1212 845 
Q 1069 694 975 541 
L 3222 541 
z
" transform="scale(0.015625)"/>
       </defs>
       <use xlink:href="#ArialMT-2212"/>
       <use xlink:href="#ArialMT-32" x="58.398438"/>
      </g>
     </g>
    </g>
    <g id="xtick_8">
     <g id="line2d_15">
      <path d="M 197.192557 225.467717 
L 197.192557 56.806299 
" clip-path="url(#p4436f57db3)" style="fill: none; stroke: #cccccc; stroke-linecap: round"/>
     </g>
     <g id="line2d_16">
      <g>
       <use xlink:href="#m6f46009d85" x="197.192557" y="225.467717" style="fill: #2219f0; stroke: #2219f0; stroke-width: 1.25"/>
      </g>
     </g>
     <g id="text_2">
      <!-- −1 -->
      <g style="fill: #2219f0" transform="translate(188.356346 246.062326) scale(0.155 -0.155)">
       <defs>
        <path id="ArialMT-31" d="M 2384 0 
L 1822 0 
L 1822 3584 
Q 1619 3391 1289 3197 
Q 959 3003 697 2906 
L 697 3450 
Q 1169 3672 1522 3987 
Q 1875 4303 2022 4600 
L 2384 4600 
L 2384 0 
z
" transform="scale(0.015625)"/>
       </defs>
       <use xlink:href="#ArialMT-2212"/>
       <use xlink:href="#ArialMT-31" x="58.398438"/>
      </g>
     </g>
    </g>
    <g id="xtick_9">
     <g id="line2d_17">
      <path d="M 266.319012 225.467717 
L 266.319012 56.806299 
" clip-path="url(#p4436f57db3)" style="fill: none; stroke: #cccccc; stroke-linecap: round"/>
     </g>
     <g id="line2d_18">
      <g>
       <use xlink:href="#m6f46009d85" x="266.319012" y="225.467717" style="fill: #2219f0; stroke: #2219f0; stroke-width: 1.25"/>
      </g>
     </g>
     <g id="text_3">
      <!-- 0 -->
      <g style="fill: #2219f0" transform="translate(262.009286 246.062326) scale(0.155 -0.155)">
       <defs>
        <path id="ArialMT-30" d="M 266 2259 
Q 266 3072 433 3567 
Q 600 4063 929 4331 
Q 1259 4600 1759 4600 
Q 2128 4600 2406 4451 
Q 2684 4303 2865 4023 
Q 3047 3744 3150 3342 
Q 3253 2941 3253 2259 
Q 3253 1453 3087 958 
Q 2922 463 2592 192 
Q 2263 -78 1759 -78 
Q 1097 -78 719 397 
Q 266 969 266 2259 
z
M 844 2259 
Q 844 1131 1108 757 
Q 1372 384 1759 384 
Q 2147 384 2411 759 
Q 2675 1134 2675 2259 
Q 2675 3391 2411 3762 
Q 2147 4134 1753 4134 
Q 1366 4134 1134 3806 
Q 844 3388 844 2259 
z
" transform="scale(0.015625)"/>
       </defs>
       <use xlink:href="#ArialMT-30"/>
      </g>
     </g>
    </g>
    <g id="xtick_10">
     <g id="line2d_19">
      <path d="M 335.445468 225.467717 
L 335.445468 56.806299 
" clip-path="url(#p4436f57db3)" style="fill: none; stroke: #cccccc; stroke-linecap: round"/>
     </g>
     <g id="line2d_20">
      <g>
       <use xlink:href="#m6f46009d85" x="335.445468" y="225.467717" style="fill: #2219f0; stroke: #2219f0; stroke-width: 1.25"/>
      </g>
     </g>
     <g id="text_4">
      <!-- 1 -->
      <g style="fill: #2219f0" transform="translate(331.135741 246.062326) scale(0.155 -0.155)">
       <use xlink:href="#ArialMT-31"/>
      </g>
     </g>
    </g>
    <g id="xtick_11">
     <g id="line2d_21">
      <path d="M 404.571924 225.467717 
L 404.571924 56.806299 
" clip-path="url(#p4436f57db3)" style="fill: none; stroke: #cccccc; stroke-linecap: round"/>
     </g>
     <g id="line2d_22">
      <g>
       <use xlink:href="#m6f46009d85" x="404.571924" y="225.467717" style="fill: #2219f0; stroke: #2219f0; stroke-width: 1.25"/>
      </g>
     </g>
     <g id="text_5">
      <!-- 2 -->
      <g style="fill: #2219f0" transform="translate(400.262197 246.062326) scale(0.155 -0.155)">
       <use xlink:href="#ArialMT-32"/>
      </g>
     </g>
    </g>
    <g id="xtick_12">
     <g id="line2d_23">
      <path d="M 473.698379 225.467717 
L 473.698379 56.806299 
" clip-path="url(#p4436f57db3)" style="fill: none; stroke: #cccccc; stroke-linecap: round"/>
     </g>
     <g id="line2d_24">
      <g>
       <use xlink:href="#m6f46009d85" x="473.698379" y="225.467717" style="fill: #2219f0; stroke: #2219f0; stroke-width: 1.25"/>
      </g>
     </g>
     <g id="text_6">
      <!-- 3 -->
      <g style="fill: #2219f0" transform="translate(469.388653 246.062326) scale(0.155 -0.155)">
       <defs>
        <path id="ArialMT-33" d="M 269 1209 
L 831 1284 
Q 928 806 1161 595 
Q 1394 384 1728 384 
Q 2125 384 2398 659 
Q 2672 934 2672 1341 
Q 2672 1728 2419 1979 
Q 2166 2231 1775 2231 
Q 1616 2231 1378 2169 
L 1441 2663 
Q 1497 2656 1531 2656 
Q 1891 2656 2178 2843 
Q 2466 3031 2466 3422 
Q 2466 3731 2256 3934 
Q 2047 4138 1716 4138 
Q 1388 4138 1169 3931 
Q 950 3725 888 3313 
L 325 3413 
Q 428 3978 793 4289 
Q 1159 4600 1703 4600 
Q 2078 4600 2393 4439 
Q 2709 4278 2876 4000 
Q 3044 3722 3044 3409 
Q 3044 3113 2884 2869 
Q 2725 2625 2413 2481 
Q 2819 2388 3044 2092 
Q 3269 1797 3269 1353 
Q 3269 753 2831 336 
Q 2394 -81 1725 -81 
Q 1122 -81 723 278 
Q 325 638 269 1209 
z
" transform="scale(0.015625)"/>
       </defs>
       <use xlink:href="#ArialMT-33"/>
      </g>
     </g>
    </g>
    <g id="text_7">
     <!-- $x_{i}$ variable -->
     <g style="fill: #0e6251" transform="translate(241.176992 264.920529) scale(0.155 -0.155)">
      <defs>
       <path id="DejaVuSans-Oblique-78" d="M 3841 3500 
L 2234 1784 
L 3219 0 
L 2559 0 
L 1819 1388 
L 531 0 
L -166 0 
L 1556 1844 
L 641 3500 
L 1300 3500 
L 1972 2234 
L 3144 3500 
L 3841 3500 
z
" transform="scale(0.015625)"/>
       <path id="DejaVuSans-Oblique-69" d="M 1172 4863 
L 1747 4863 
L 1606 4134 
L 1031 4134 
L 1172 4863 
z
M 909 3500 
L 1484 3500 
L 800 0 
L 225 0 
L 909 3500 
z
" transform="scale(0.015625)"/>
       <path id="DejaVuSans-20" transform="scale(0.015625)"/>
       <path id="DejaVuSans-76" d="M 191 3500 
L 800 3500 
L 1894 563 
L 2988 3500 
L 3597 3500 
L 2284 0 
L 1503 0 
L 191 3500 
z
" transform="scale(0.015625)"/>
       <path id="DejaVuSans-61" d="M 2194 1759 
Q 1497 1759 1228 1600 
Q 959 1441 959 1056 
Q 959 750 1161 570 
Q 1363 391 1709 391 
Q 2188 391 2477 730 
Q 2766 1069 2766 1631 
L 2766 1759 
L 2194 1759 
z
M 3341 1997 
L 3341 0 
L 2766 0 
L 2766 531 
Q 2569 213 2275 61 
Q 1981 -91 1556 -91 
Q 1019 -91 701 211 
Q 384 513 384 1019 
Q 384 1609 779 1909 
Q 1175 2209 1959 2209 
L 2766 2209 
L 2766 2266 
Q 2766 2663 2505 2880 
Q 2244 3097 1772 3097 
Q 1472 3097 1187 3025 
Q 903 2953 641 2809 
L 641 3341 
Q 956 3463 1253 3523 
Q 1550 3584 1831 3584 
Q 2591 3584 2966 3190 
Q 3341 2797 3341 1997 
z
" transform="scale(0.015625)"/>
       <path id="DejaVuSans-72" d="M 2631 2963 
Q 2534 3019 2420 3045 
Q 2306 3072 2169 3072 
Q 1681 3072 1420 2755 
Q 1159 2438 1159 1844 
L 1159 0 
L 581 0 
L 581 3500 
L 1159 3500 
L 1159 2956 
Q 1341 3275 1631 3429 
Q 1922 3584 2338 3584 
Q 2397 3584 2469 3576 
Q 2541 3569 2628 3553 
L 2631 2963 
z
" transform="scale(0.015625)"/>
       <path id="DejaVuSans-69" d="M 603 3500 
L 1178 3500 
L 1178 0 
L 603 0 
L 603 3500 
z
M 603 4863 
L 1178 4863 
L 1178 4134 
L 603 4134 
L 603 4863 
z
" transform="scale(0.015625)"/>
       <path id="DejaVuSans-62" d="M 3116 1747 
Q 3116 2381 2855 2742 
Q 2594 3103 2138 3103 
Q 1681 3103 1420 2742 
Q 1159 2381 1159 1747 
Q 1159 1113 1420 752 
Q 1681 391 2138 391 
Q 2594 391 2855 752 
Q 3116 1113 3116 1747 
z
M 1159 2969 
Q 1341 3281 1617 3432 
Q 1894 3584 2278 3584 
Q 2916 3584 3314 3078 
Q 3713 2572 3713 1747 
Q 3713 922 3314 415 
Q 2916 -91 2278 -91 
Q 1894 -91 1617 61 
Q 1341 213 1159 525 
L 1159 0 
L 581 0 
L 581 4863 
L 1159 4863 
L 1159 2969 
z
" transform="scale(0.015625)"/>
       <path id="DejaVuSans-6c" d="M 603 4863 
L 1178 4863 
L 1178 0 
L 603 0 
L 603 4863 
z
" transform="scale(0.015625)"/>
       <path id="DejaVuSans-65" d="M 3597 1894 
L 3597 1613 
L 953 1613 
Q 991 1019 1311 708 
Q 1631 397 2203 397 
Q 2534 397 2845 478 
Q 3156 559 3463 722 
L 3463 178 
Q 3153 47 2828 -22 
Q 2503 -91 2169 -91 
Q 1331 -91 842 396 
Q 353 884 353 1716 
Q 353 2575 817 3079 
Q 1281 3584 2069 3584 
Q 2775 3584 3186 3129 
Q 3597 2675 3597 1894 
z
M 3022 2063 
Q 3016 2534 2758 2815 
Q 2500 3097 2075 3097 
Q 1594 3097 1305 2825 
Q 1016 2553 972 2059 
L 3022 2063 
z
" transform="scale(0.015625)"/>
      </defs>
      <use xlink:href="#DejaVuSans-Oblique-78" transform="translate(0 0.015625)"/>
      <use xlink:href="#DejaVuSans-Oblique-69" transform="translate(59.179688 -16.390625) scale(0.7)"/>
      <use xlink:href="#DejaVuSans-20" transform="translate(81.362305 0.015625)"/>
      <use xlink:href="#DejaVuSans-76" transform="translate(113.149414 0.015625)"/>
      <use xlink:href="#DejaVuSans-61" transform="translate(172.329102 0.015625)"/>
      <use xlink:href="#DejaVuSans-72" transform="translate(233.608398 0.015625)"/>
      <use xlink:href="#DejaVuSans-69" transform="translate(274.72168 0.015625)"/>
      <use xlink:href="#DejaVuSans-61" transform="translate(302.504883 0.015625)"/>
      <use xlink:href="#DejaVuSans-62" transform="translate(363.78418 0.015625)"/>
      <use xlink:href="#DejaVuSans-6c" transform="translate(427.260742 0.015625)"/>
      <use xlink:href="#DejaVuSans-65" transform="translate(455.043945 0.015625)"/>
     </g>
    </g>
   </g>
   <g id="matplotlib.axis_4">
    <g id="ytick_1">
     <g id="line2d_25">
      <path d="M 61.559453 225.467717 
L 500.929532 225.467717 
" clip-path="url(#p4436f57db3)" style="fill: none; stroke: #cccccc; stroke-linecap: round"/>
     </g>
     <g id="line2d_26">
      <defs>
       <path id="mf0df8235cc" d="M 0 0 
L -6 0 
" style="stroke: #2219f0; stroke-width: 1.25"/>
      </defs>
      <g>
       <use xlink:href="#mf0df8235cc" x="61.559453" y="225.467717" style="fill: #2219f0; stroke: #2219f0; stroke-width: 1.25"/>
      </g>
     </g>
     <g id="text_8">
      <!-- 0 -->
      <g style="fill: #2219f0" transform="translate(43.44 231.015021) scale(0.155 -0.155)">
       <use xlink:href="#ArialMT-30"/>
      </g>
     </g>
    </g>
    <g id="ytick_2">
     <g id="line2d_27">
      <path d="M 61.559453 163.208057 
L 500.929532 163.208057 
" clip-path="url(#p4436f57db3)" style="fill: none; stroke: #cccccc; stroke-linecap: round"/>
     </g>
     <g id="line2d_28">
      <g>
       <use xlink:href="#mf0df8235cc" x="61.559453" y="163.208057" style="fill: #2219f0; stroke: #2219f0; stroke-width: 1.25"/>
      </g>
     </g>
     <g id="text_9">
      <!-- 50 -->
      <g style="fill: #2219f0" transform="translate(34.820547 168.755362) scale(0.155 -0.155)">
       <defs>
        <path id="ArialMT-35" d="M 266 1200 
L 856 1250 
Q 922 819 1161 601 
Q 1400 384 1738 384 
Q 2144 384 2425 690 
Q 2706 997 2706 1503 
Q 2706 1984 2436 2262 
Q 2166 2541 1728 2541 
Q 1456 2541 1237 2417 
Q 1019 2294 894 2097 
L 366 2166 
L 809 4519 
L 3088 4519 
L 3088 3981 
L 1259 3981 
L 1013 2750 
Q 1425 3038 1878 3038 
Q 2478 3038 2890 2622 
Q 3303 2206 3303 1553 
Q 3303 931 2941 478 
Q 2500 -78 1738 -78 
Q 1113 -78 717 272 
Q 322 622 266 1200 
z
" transform="scale(0.015625)"/>
       </defs>
       <use xlink:href="#ArialMT-35"/>
       <use xlink:href="#ArialMT-30" x="55.615234"/>
      </g>
     </g>
    </g>
    <g id="ytick_3">
     <g id="line2d_29">
      <path d="M 61.559453 100.948398 
L 500.929532 100.948398 
" clip-path="url(#p4436f57db3)" style="fill: none; stroke: #cccccc; stroke-linecap: round"/>
     </g>
     <g id="line2d_30">
      <g>
       <use xlink:href="#mf0df8235cc" x="61.559453" y="100.948398" style="fill: #2219f0; stroke: #2219f0; stroke-width: 1.25"/>
      </g>
     </g>
     <g id="text_10">
      <!-- 100 -->
      <g style="fill: #2219f0" transform="translate(26.201094 106.495702) scale(0.155 -0.155)">
       <use xlink:href="#ArialMT-31"/>
       <use xlink:href="#ArialMT-30" x="55.615234"/>
       <use xlink:href="#ArialMT-30" x="111.230469"/>
      </g>
     </g>
    </g>
    <g id="text_11">
     <!-- Frequency -->
     <g style="fill: #0e6251" transform="translate(18.977578 181.173023) rotate(-90) scale(0.155 -0.155)">
      <defs>
       <path id="DejaVuSans-46" d="M 628 4666 
L 3309 4666 
L 3309 4134 
L 1259 4134 
L 1259 2759 
L 3109 2759 
L 3109 2228 
L 1259 2228 
L 1259 0 
L 628 0 
L 628 4666 
z
" transform="scale(0.015625)"/>
       <path id="DejaVuSans-71" d="M 947 1747 
Q 947 1113 1208 752 
Q 1469 391 1925 391 
Q 2381 391 2643 752 
Q 2906 1113 2906 1747 
Q 2906 2381 2643 2742 
Q 2381 3103 1925 3103 
Q 1469 3103 1208 2742 
Q 947 2381 947 1747 
z
M 2906 525 
Q 2725 213 2448 61 
Q 2172 -91 1784 -91 
Q 1150 -91 751 415 
Q 353 922 353 1747 
Q 353 2572 751 3078 
Q 1150 3584 1784 3584 
Q 2172 3584 2448 3432 
Q 2725 3281 2906 2969 
L 2906 3500 
L 3481 3500 
L 3481 -1331 
L 2906 -1331 
L 2906 525 
z
" transform="scale(0.015625)"/>
       <path id="DejaVuSans-75" d="M 544 1381 
L 544 3500 
L 1119 3500 
L 1119 1403 
Q 1119 906 1312 657 
Q 1506 409 1894 409 
Q 2359 409 2629 706 
Q 2900 1003 2900 1516 
L 2900 3500 
L 3475 3500 
L 3475 0 
L 2900 0 
L 2900 538 
Q 2691 219 2414 64 
Q 2138 -91 1772 -91 
Q 1169 -91 856 284 
Q 544 659 544 1381 
z
M 1991 3584 
L 1991 3584 
z
" transform="scale(0.015625)"/>
       <path id="DejaVuSans-6e" d="M 3513 2113 
L 3513 0 
L 2938 0 
L 2938 2094 
Q 2938 2591 2744 2837 
Q 2550 3084 2163 3084 
Q 1697 3084 1428 2787 
Q 1159 2491 1159 1978 
L 1159 0 
L 581 0 
L 581 3500 
L 1159 3500 
L 1159 2956 
Q 1366 3272 1645 3428 
Q 1925 3584 2291 3584 
Q 2894 3584 3203 3211 
Q 3513 2838 3513 2113 
z
" transform="scale(0.015625)"/>
       <path id="DejaVuSans-63" d="M 3122 3366 
L 3122 2828 
Q 2878 2963 2633 3030 
Q 2388 3097 2138 3097 
Q 1578 3097 1268 2742 
Q 959 2388 959 1747 
Q 959 1106 1268 751 
Q 1578 397 2138 397 
Q 2388 397 2633 464 
Q 2878 531 3122 666 
L 3122 134 
Q 2881 22 2623 -34 
Q 2366 -91 2075 -91 
Q 1284 -91 818 406 
Q 353 903 353 1747 
Q 353 2603 823 3093 
Q 1294 3584 2113 3584 
Q 2378 3584 2631 3529 
Q 2884 3475 3122 3366 
z
" transform="scale(0.015625)"/>
       <path id="DejaVuSans-79" d="M 2059 -325 
Q 1816 -950 1584 -1140 
Q 1353 -1331 966 -1331 
L 506 -1331 
L 506 -850 
L 844 -850 
Q 1081 -850 1212 -737 
Q 1344 -625 1503 -206 
L 1606 56 
L 191 3500 
L 800 3500 
L 1894 763 
L 2988 3500 
L 3597 3500 
L 2059 -325 
z
" transform="scale(0.015625)"/>
      </defs>
      <use xlink:href="#DejaVuSans-46"/>
      <use xlink:href="#DejaVuSans-72" x="50.269531"/>
      <use xlink:href="#DejaVuSans-65" x="89.132812"/>
      <use xlink:href="#DejaVuSans-71" x="150.65625"/>
      <use xlink:href="#DejaVuSans-75" x="214.132812"/>
      <use xlink:href="#DejaVuSans-65" x="277.511719"/>
      <use xlink:href="#DejaVuSans-6e" x="339.035156"/>
      <use xlink:href="#DejaVuSans-63" x="402.414062"/>
      <use xlink:href="#DejaVuSans-79" x="457.394531"/>
     </g>
    </g>
   </g>
   <g id="patch_6">
    <path d="M 81.53082 225.467717 
L 101.502188 225.467717 
L 101.502188 221.732137 
L 81.53082 221.732137 
z
" clip-path="url(#p4436f57db3)" style="fill: #581845; fill-opacity: 0.75; stroke: #ffffff; stroke-linejoin: miter"/>
   </g>
   <g id="patch_7">
    <path d="M 101.502188 225.467717 
L 121.473555 225.467717 
L 121.473555 211.770591 
L 101.502188 211.770591 
z
" clip-path="url(#p4436f57db3)" style="fill: #581845; fill-opacity: 0.75; stroke: #ffffff; stroke-linejoin: miter"/>
   </g>
   <g id="patch_8">
    <path d="M 121.473555 225.467717 
L 141.444922 225.467717 
L 141.444922 209.280205 
L 121.473555 209.280205 
z
" clip-path="url(#p4436f57db3)" style="fill: #581845; fill-opacity: 0.75; stroke: #ffffff; stroke-linejoin: miter"/>
   </g>
   <g id="patch_9">
    <path d="M 141.444922 225.467717 
L 161.416289 225.467717 
L 161.416289 181.885955 
L 141.444922 181.885955 
z
" clip-path="url(#p4436f57db3)" style="fill: #581845; fill-opacity: 0.75; stroke: #ffffff; stroke-linejoin: miter"/>
   </g>
   <g id="patch_10">
    <path d="M 161.416289 225.467717 
L 181.387656 225.467717 
L 181.387656 165.698444 
L 161.416289 165.698444 
z
" clip-path="url(#p4436f57db3)" style="fill: #581845; fill-opacity: 0.75; stroke: #ffffff; stroke-linejoin: miter"/>
   </g>
   <g id="patch_11">
    <path d="M 181.387656 225.467717 
L 201.359024 225.467717 
L 201.359024 138.304193 
L 181.387656 138.304193 
z
" clip-path="url(#p4436f57db3)" style="fill: #581845; fill-opacity: 0.75; stroke: #ffffff; stroke-linejoin: miter"/>
   </g>
   <g id="patch_12">
    <path d="M 201.359024 225.467717 
L 221.330391 225.467717 
L 221.330391 120.871489 
L 201.359024 120.871489 
z
" clip-path="url(#p4436f57db3)" style="fill: #581845; fill-opacity: 0.75; stroke: #ffffff; stroke-linejoin: miter"/>
   </g>
   <g id="patch_13">
    <path d="M 221.330391 225.467717 
L 241.301758 225.467717 
L 241.301758 112.155136 
L 221.330391 112.155136 
z
" clip-path="url(#p4436f57db3)" style="fill: #581845; fill-opacity: 0.75; stroke: #ffffff; stroke-linejoin: miter"/>
   </g>
   <g id="patch_14">
    <path d="M 241.301758 225.467717 
L 261.273125 225.467717 
L 261.273125 64.837795 
L 241.301758 64.837795 
z
" clip-path="url(#p4436f57db3)" style="fill: #581845; fill-opacity: 0.75; stroke: #ffffff; stroke-linejoin: miter"/>
   </g>
   <g id="patch_15">
    <path d="M 261.273125 225.467717 
L 281.244492 225.467717 
L 281.244492 92.232045 
L 261.273125 92.232045 
z
" clip-path="url(#p4436f57db3)" style="fill: #581845; fill-opacity: 0.75; stroke: #ffffff; stroke-linejoin: miter"/>
   </g>
   <g id="patch_16">
    <path d="M 281.244492 225.467717 
L 301.21586 225.467717 
L 301.21586 99.703205 
L 281.244492 99.703205 
z
" clip-path="url(#p4436f57db3)" style="fill: #581845; fill-opacity: 0.75; stroke: #ffffff; stroke-linejoin: miter"/>
   </g>
   <g id="patch_17">
    <path d="M 301.21586 225.467717 
L 321.187227 225.467717 
L 321.187227 118.381102 
L 301.21586 118.381102 
z
" clip-path="url(#p4436f57db3)" style="fill: #581845; fill-opacity: 0.75; stroke: #ffffff; stroke-linejoin: miter"/>
   </g>
   <g id="patch_18">
    <path d="M 321.187227 225.467717 
L 341.158594 225.467717 
L 341.158594 127.097455 
L 321.187227 127.097455 
z
" clip-path="url(#p4436f57db3)" style="fill: #581845; fill-opacity: 0.75; stroke: #ffffff; stroke-linejoin: miter"/>
   </g>
   <g id="patch_19">
    <path d="M 341.158594 225.467717 
L 361.129961 225.467717 
L 361.129961 153.246512 
L 341.158594 153.246512 
z
" clip-path="url(#p4436f57db3)" style="fill: #581845; fill-opacity: 0.75; stroke: #ffffff; stroke-linejoin: miter"/>
   </g>
   <g id="patch_20">
    <path d="M 361.129961 225.467717 
L 381.101329 225.467717 
L 381.101329 173.169603 
L 361.129961 173.169603 
z
" clip-path="url(#p4436f57db3)" style="fill: #581845; fill-opacity: 0.75; stroke: #ffffff; stroke-linejoin: miter"/>
   </g>
   <g id="patch_21">
    <path d="M 381.101329 225.467717 
L 401.072696 225.467717 
L 401.072696 193.092694 
L 381.101329 193.092694 
z
" clip-path="url(#p4436f57db3)" style="fill: #581845; fill-opacity: 0.75; stroke: #ffffff; stroke-linejoin: miter"/>
   </g>
   <g id="patch_22">
    <path d="M 401.072696 225.467717 
L 421.044063 225.467717 
L 421.044063 214.260978 
L 401.072696 214.260978 
z
" clip-path="url(#p4436f57db3)" style="fill: #581845; fill-opacity: 0.75; stroke: #ffffff; stroke-linejoin: miter"/>
   </g>
   <g id="patch_23">
    <path d="M 421.044063 225.467717 
L 441.01543 225.467717 
L 441.01543 219.241751 
L 421.044063 219.241751 
z
" clip-path="url(#p4436f57db3)" style="fill: #581845; fill-opacity: 0.75; stroke: #ffffff; stroke-linejoin: miter"/>
   </g>
   <g id="patch_24">
    <path d="M 441.01543 225.467717 
L 460.986797 225.467717 
L 460.986797 224.222523 
L 441.01543 224.222523 
z
" clip-path="url(#p4436f57db3)" style="fill: #581845; fill-opacity: 0.75; stroke: #ffffff; stroke-linejoin: miter"/>
   </g>
   <g id="patch_25">
    <path d="M 460.986797 225.467717 
L 480.958165 225.467717 
L 480.958165 222.97733 
L 460.986797 222.97733 
z
" clip-path="url(#p4436f57db3)" style="fill: #581845; fill-opacity: 0.75; stroke: #ffffff; stroke-linejoin: miter"/>
   </g>
   <g id="patch_26">
    <path d="M 61.559453 225.467717 
L 61.559453 56.806299 
" style="fill: none; stroke: #262626; stroke-width: 1.25; stroke-linejoin: miter; stroke-linecap: square"/>
   </g>
   <g id="patch_27">
    <path d="M 61.559453 225.467717 
L 500.929532 225.467717 
" style="fill: none; stroke: #262626; stroke-width: 1.25; stroke-linejoin: miter; stroke-linecap: square"/>
   </g>
  </g>
 </g>
 <defs>
  <clipPath id="p720fc4faac">
   <rect x="61.559453" y="7.2" width="439.370079" height="29.76378"/>
  </clipPath>
  <clipPath id="p4436f57db3">
   <rect x="61.559453" y="56.806299" width="439.370079" height="168.661417"/>
  </clipPath>
 </defs>
</svg>
