<?xml version="1.0" encoding="utf-8" standalone="no"?>
<!DOCTYPE svg PUBLIC "-//W3C//DTD SVG 1.1//EN"
  "http://www.w3.org/Graphics/SVG/1.1/DTD/svg11.dtd">
<svg xmlns:xlink="http://www.w3.org/1999/xlink" width="579.839454pt" height="268.830842pt" viewBox="0 0 579.839454 268.830842" xmlns="http://www.w3.org/2000/svg" version="1.1">
 <metadata>
  <rdf:RDF xmlns:dc="http://purl.org/dc/elements/1.1/" xmlns:cc="http://creativecommons.org/ns#" xmlns:rdf="http://www.w3.org/1999/02/22-rdf-syntax-ns#">
   <cc:Work>
    <dc:type rdf:resource="http://purl.org/dc/dcmitype/StillImage"/>
    <dc:date>2023-11-04T18:10:10.156615</dc:date>
    <dc:format>image/svg+xml</dc:format>
    <dc:creator>
     <cc:Agent>
      <dc:title>Matplotlib v3.7.1, https://matplotlib.org/</dc:title>
     </cc:Agent>
    </dc:creator>
   </cc:Work>
  </rdf:RDF>
 </metadata>
 <defs>
  <style type="text/css">*{stroke-linejoin: round; stroke-linecap: butt}</style>
 </defs>
 <g id="figure_1">
  <g id="patch_1">
   <path d="M 0 268.830842 
L 579.839454 268.830842 
L 579.839454 0 
L 0 0 
L 0 268.830842 
z
" style="fill: none"/>
  </g>
  <g id="axes_1">
   <g id="patch_2">
    <path d="M 71.915 225.467717 
L 511.285079 225.467717 
L 511.285079 7.2 
L 71.915 7.2 
L 71.915 225.467717 
z
" style="fill: none"/>
   </g>
   <g id="matplotlib.axis_1">
    <g id="xtick_1">
     <g id="line2d_1">
      <path d="M 91.486139 225.467717 
L 91.486139 7.2 
" clip-path="url(#p7632dfbb60)" style="fill: none; stroke-dasharray: 6.4,1.6,1,1.6; stroke-dashoffset: 0; stroke: #808080; stroke-opacity: 0.2"/>
     </g>
     <g id="line2d_2">
      <defs>
       <path id="m0e03704406" d="M 0 0 
L 0 3.5 
" style="stroke: #000000; stroke-width: 0.8"/>
      </defs>
      <g>
       <use xlink:href="#m0e03704406" x="91.486139" y="225.467717" style="stroke: #000000; stroke-width: 0.8"/>
      </g>
     </g>
     <g id="text_1">
      <!-- 0 -->
      <g transform="translate(87.668639 241.585842) scale(0.12 -0.12)">
       <defs>
        <path id="DejaVuSans-30" d="M 2034 4250 
Q 1547 4250 1301 3770 
Q 1056 3291 1056 2328 
Q 1056 1369 1301 889 
Q 1547 409 2034 409 
Q 2525 409 2770 889 
Q 3016 1369 3016 2328 
Q 3016 3291 2770 3770 
Q 2525 4250 2034 4250 
z
M 2034 4750 
Q 2819 4750 3233 4129 
Q 3647 3509 3647 2328 
Q 3647 1150 3233 529 
Q 2819 -91 2034 -91 
Q 1250 -91 836 529 
Q 422 1150 422 2328 
Q 422 3509 836 4129 
Q 1250 4750 2034 4750 
z
" transform="scale(0.015625)"/>
       </defs>
       <use xlink:href="#DejaVuSans-30"/>
      </g>
     </g>
    </g>
    <g id="xtick_2">
     <g id="line2d_3">
      <path d="M 171.531699 225.467717 
L 171.531699 7.2 
" clip-path="url(#p7632dfbb60)" style="fill: none; stroke-dasharray: 6.4,1.6,1,1.6; stroke-dashoffset: 0; stroke: #808080; stroke-opacity: 0.2"/>
     </g>
     <g id="line2d_4">
      <g>
       <use xlink:href="#m0e03704406" x="171.531699" y="225.467717" style="stroke: #000000; stroke-width: 0.8"/>
      </g>
     </g>
     <g id="text_2">
      <!-- 2 -->
      <g transform="translate(167.714199 241.585842) scale(0.12 -0.12)">
       <defs>
        <path id="DejaVuSans-32" d="M 1228 531 
L 3431 531 
L 3431 0 
L 469 0 
L 469 531 
Q 828 903 1448 1529 
Q 2069 2156 2228 2338 
Q 2531 2678 2651 2914 
Q 2772 3150 2772 3378 
Q 2772 3750 2511 3984 
Q 2250 4219 1831 4219 
Q 1534 4219 1204 4116 
Q 875 4013 500 3803 
L 500 4441 
Q 881 4594 1212 4672 
Q 1544 4750 1819 4750 
Q 2544 4750 2975 4387 
Q 3406 4025 3406 3419 
Q 3406 3131 3298 2873 
Q 3191 2616 2906 2266 
Q 2828 2175 2409 1742 
Q 1991 1309 1228 531 
z
" transform="scale(0.015625)"/>
       </defs>
       <use xlink:href="#DejaVuSans-32"/>
      </g>
     </g>
    </g>
    <g id="xtick_3">
     <g id="line2d_5">
      <path d="M 251.577259 225.467717 
L 251.577259 7.2 
" clip-path="url(#p7632dfbb60)" style="fill: none; stroke-dasharray: 6.4,1.6,1,1.6; stroke-dashoffset: 0; stroke: #808080; stroke-opacity: 0.2"/>
     </g>
     <g id="line2d_6">
      <g>
       <use xlink:href="#m0e03704406" x="251.577259" y="225.467717" style="stroke: #000000; stroke-width: 0.8"/>
      </g>
     </g>
     <g id="text_3">
      <!-- 4 -->
      <g transform="translate(247.759759 241.585842) scale(0.12 -0.12)">
       <defs>
        <path id="DejaVuSans-34" d="M 2419 4116 
L 825 1625 
L 2419 1625 
L 2419 4116 
z
M 2253 4666 
L 3047 4666 
L 3047 1625 
L 3713 1625 
L 3713 1100 
L 3047 1100 
L 3047 0 
L 2419 0 
L 2419 1100 
L 313 1100 
L 313 1709 
L 2253 4666 
z
" transform="scale(0.015625)"/>
       </defs>
       <use xlink:href="#DejaVuSans-34"/>
      </g>
     </g>
    </g>
    <g id="xtick_4">
     <g id="line2d_7">
      <path d="M 331.622819 225.467717 
L 331.622819 7.2 
" clip-path="url(#p7632dfbb60)" style="fill: none; stroke-dasharray: 6.4,1.6,1,1.6; stroke-dashoffset: 0; stroke: #808080; stroke-opacity: 0.2"/>
     </g>
     <g id="line2d_8">
      <g>
       <use xlink:href="#m0e03704406" x="331.622819" y="225.467717" style="stroke: #000000; stroke-width: 0.8"/>
      </g>
     </g>
     <g id="text_4">
      <!-- 6 -->
      <g transform="translate(327.805319 241.585842) scale(0.12 -0.12)">
       <defs>
        <path id="DejaVuSans-36" d="M 2113 2584 
Q 1688 2584 1439 2293 
Q 1191 2003 1191 1497 
Q 1191 994 1439 701 
Q 1688 409 2113 409 
Q 2538 409 2786 701 
Q 3034 994 3034 1497 
Q 3034 2003 2786 2293 
Q 2538 2584 2113 2584 
z
M 3366 4563 
L 3366 3988 
Q 3128 4100 2886 4159 
Q 2644 4219 2406 4219 
Q 1781 4219 1451 3797 
Q 1122 3375 1075 2522 
Q 1259 2794 1537 2939 
Q 1816 3084 2150 3084 
Q 2853 3084 3261 2657 
Q 3669 2231 3669 1497 
Q 3669 778 3244 343 
Q 2819 -91 2113 -91 
Q 1303 -91 875 529 
Q 447 1150 447 2328 
Q 447 3434 972 4092 
Q 1497 4750 2381 4750 
Q 2619 4750 2861 4703 
Q 3103 4656 3366 4563 
z
" transform="scale(0.015625)"/>
       </defs>
       <use xlink:href="#DejaVuSans-36"/>
      </g>
     </g>
    </g>
    <g id="xtick_5">
     <g id="line2d_9">
      <path d="M 411.668379 225.467717 
L 411.668379 7.2 
" clip-path="url(#p7632dfbb60)" style="fill: none; stroke-dasharray: 6.4,1.6,1,1.6; stroke-dashoffset: 0; stroke: #808080; stroke-opacity: 0.2"/>
     </g>
     <g id="line2d_10">
      <g>
       <use xlink:href="#m0e03704406" x="411.668379" y="225.467717" style="stroke: #000000; stroke-width: 0.8"/>
      </g>
     </g>
     <g id="text_5">
      <!-- 8 -->
      <g transform="translate(407.850879 241.585842) scale(0.12 -0.12)">
       <defs>
        <path id="DejaVuSans-38" d="M 2034 2216 
Q 1584 2216 1326 1975 
Q 1069 1734 1069 1313 
Q 1069 891 1326 650 
Q 1584 409 2034 409 
Q 2484 409 2743 651 
Q 3003 894 3003 1313 
Q 3003 1734 2745 1975 
Q 2488 2216 2034 2216 
z
M 1403 2484 
Q 997 2584 770 2862 
Q 544 3141 544 3541 
Q 544 4100 942 4425 
Q 1341 4750 2034 4750 
Q 2731 4750 3128 4425 
Q 3525 4100 3525 3541 
Q 3525 3141 3298 2862 
Q 3072 2584 2669 2484 
Q 3125 2378 3379 2068 
Q 3634 1759 3634 1313 
Q 3634 634 3220 271 
Q 2806 -91 2034 -91 
Q 1263 -91 848 271 
Q 434 634 434 1313 
Q 434 1759 690 2068 
Q 947 2378 1403 2484 
z
M 1172 3481 
Q 1172 3119 1398 2916 
Q 1625 2713 2034 2713 
Q 2441 2713 2670 2916 
Q 2900 3119 2900 3481 
Q 2900 3844 2670 4047 
Q 2441 4250 2034 4250 
Q 1625 4250 1398 4047 
Q 1172 3844 1172 3481 
z
" transform="scale(0.015625)"/>
       </defs>
       <use xlink:href="#DejaVuSans-38"/>
      </g>
     </g>
    </g>
    <g id="xtick_6">
     <g id="line2d_11">
      <path d="M 491.713939 225.467717 
L 491.713939 7.2 
" clip-path="url(#p7632dfbb60)" style="fill: none; stroke-dasharray: 6.4,1.6,1,1.6; stroke-dashoffset: 0; stroke: #808080; stroke-opacity: 0.2"/>
     </g>
     <g id="line2d_12">
      <g>
       <use xlink:href="#m0e03704406" x="491.713939" y="225.467717" style="stroke: #000000; stroke-width: 0.8"/>
      </g>
     </g>
     <g id="text_6">
      <!-- 10 -->
      <g transform="translate(484.078939 241.585842) scale(0.12 -0.12)">
       <defs>
        <path id="DejaVuSans-31" d="M 794 531 
L 1825 531 
L 1825 4091 
L 703 3866 
L 703 4441 
L 1819 4666 
L 2450 4666 
L 2450 531 
L 3481 531 
L 3481 0 
L 794 0 
L 794 531 
z
" transform="scale(0.015625)"/>
       </defs>
       <use xlink:href="#DejaVuSans-31"/>
       <use xlink:href="#DejaVuSans-30" x="63.623047"/>
      </g>
     </g>
    </g>
    <g id="text_7">
     <!-- time ($s$) -->
     <g transform="translate(264.440039 258.719279) scale(0.14 -0.14)">
      <defs>
       <path id="DejaVuSans-74" d="M 1172 4494 
L 1172 3500 
L 2356 3500 
L 2356 3053 
L 1172 3053 
L 1172 1153 
Q 1172 725 1289 603 
Q 1406 481 1766 481 
L 2356 481 
L 2356 0 
L 1766 0 
Q 1100 0 847 248 
Q 594 497 594 1153 
L 594 3053 
L 172 3053 
L 172 3500 
L 594 3500 
L 594 4494 
L 1172 4494 
z
" transform="scale(0.015625)"/>
       <path id="DejaVuSans-69" d="M 603 3500 
L 1178 3500 
L 1178 0 
L 603 0 
L 603 3500 
z
M 603 4863 
L 1178 4863 
L 1178 4134 
L 603 4134 
L 603 4863 
z
" transform="scale(0.015625)"/>
       <path id="DejaVuSans-6d" d="M 3328 2828 
Q 3544 3216 3844 3400 
Q 4144 3584 4550 3584 
Q 5097 3584 5394 3201 
Q 5691 2819 5691 2113 
L 5691 0 
L 5113 0 
L 5113 2094 
Q 5113 2597 4934 2840 
Q 4756 3084 4391 3084 
Q 3944 3084 3684 2787 
Q 3425 2491 3425 1978 
L 3425 0 
L 2847 0 
L 2847 2094 
Q 2847 2600 2669 2842 
Q 2491 3084 2119 3084 
Q 1678 3084 1418 2786 
Q 1159 2488 1159 1978 
L 1159 0 
L 581 0 
L 581 3500 
L 1159 3500 
L 1159 2956 
Q 1356 3278 1631 3431 
Q 1906 3584 2284 3584 
Q 2666 3584 2933 3390 
Q 3200 3197 3328 2828 
z
" transform="scale(0.015625)"/>
       <path id="DejaVuSans-65" d="M 3597 1894 
L 3597 1613 
L 953 1613 
Q 991 1019 1311 708 
Q 1631 397 2203 397 
Q 2534 397 2845 478 
Q 3156 559 3463 722 
L 3463 178 
Q 3153 47 2828 -22 
Q 2503 -91 2169 -91 
Q 1331 -91 842 396 
Q 353 884 353 1716 
Q 353 2575 817 3079 
Q 1281 3584 2069 3584 
Q 2775 3584 3186 3129 
Q 3597 2675 3597 1894 
z
M 3022 2063 
Q 3016 2534 2758 2815 
Q 2500 3097 2075 3097 
Q 1594 3097 1305 2825 
Q 1016 2553 972 2059 
L 3022 2063 
z
" transform="scale(0.015625)"/>
       <path id="DejaVuSans-20" transform="scale(0.015625)"/>
       <path id="DejaVuSans-28" d="M 1984 4856 
Q 1566 4138 1362 3434 
Q 1159 2731 1159 2009 
Q 1159 1288 1364 580 
Q 1569 -128 1984 -844 
L 1484 -844 
Q 1016 -109 783 600 
Q 550 1309 550 2009 
Q 550 2706 781 3412 
Q 1013 4119 1484 4856 
L 1984 4856 
z
" transform="scale(0.015625)"/>
       <path id="DejaVuSans-Oblique-73" d="M 3200 3397 
L 3091 2853 
Q 2863 2978 2609 3040 
Q 2356 3103 2088 3103 
Q 1634 3103 1373 2948 
Q 1113 2794 1113 2528 
Q 1113 2219 1719 2053 
Q 1766 2041 1788 2034 
L 1972 1978 
Q 2547 1819 2739 1644 
Q 2931 1469 2931 1166 
Q 2931 609 2489 259 
Q 2047 -91 1331 -91 
Q 1053 -91 747 -37 
Q 441 16 72 128 
L 184 722 
Q 500 559 806 475 
Q 1113 391 1394 391 
Q 1816 391 2080 572 
Q 2344 753 2344 1031 
Q 2344 1331 1650 1516 
L 1591 1531 
L 1394 1581 
Q 956 1697 753 1886 
Q 550 2075 550 2369 
Q 550 2928 970 3256 
Q 1391 3584 2113 3584 
Q 2397 3584 2667 3537 
Q 2938 3491 3200 3397 
z
" transform="scale(0.015625)"/>
       <path id="DejaVuSans-29" d="M 513 4856 
L 1013 4856 
Q 1481 4119 1714 3412 
Q 1947 2706 1947 2009 
Q 1947 1309 1714 600 
Q 1481 -109 1013 -844 
L 513 -844 
Q 928 -128 1133 580 
Q 1338 1288 1338 2009 
Q 1338 2731 1133 3434 
Q 928 4138 513 4856 
z
" transform="scale(0.015625)"/>
      </defs>
      <use xlink:href="#DejaVuSans-74" transform="translate(0 0.015625)"/>
      <use xlink:href="#DejaVuSans-69" transform="translate(39.208984 0.015625)"/>
      <use xlink:href="#DejaVuSans-6d" transform="translate(66.992188 0.015625)"/>
      <use xlink:href="#DejaVuSans-65" transform="translate(164.404297 0.015625)"/>
      <use xlink:href="#DejaVuSans-20" transform="translate(225.927734 0.015625)"/>
      <use xlink:href="#DejaVuSans-28" transform="translate(257.714844 0.015625)"/>
      <use xlink:href="#DejaVuSans-Oblique-73" transform="translate(296.728516 0.015625)"/>
      <use xlink:href="#DejaVuSans-29" transform="translate(348.828125 0.015625)"/>
     </g>
    </g>
   </g>
   <g id="matplotlib.axis_2">
    <g id="ytick_1">
     <g id="line2d_13">
      <path d="M 71.915 215.555648 
L 511.285079 215.555648 
" clip-path="url(#p7632dfbb60)" style="fill: none; stroke-dasharray: 6.4,1.6,1,1.6; stroke-dashoffset: 0; stroke: #808080; stroke-opacity: 0.2"/>
     </g>
     <g id="line2d_14">
      <defs>
       <path id="mfa2a6f17d6" d="M 0 0 
L -3.5 0 
" style="stroke: #ff0000; stroke-width: 0.8"/>
      </defs>
      <g>
       <use xlink:href="#mfa2a6f17d6" x="71.915" y="215.555648" style="fill: #ff0000; stroke: #ff0000; stroke-width: 0.8"/>
      </g>
     </g>
     <g id="text_8">
      <!-- 0 -->
      <g style="fill: #ff0000" transform="translate(57.28 220.11471) scale(0.12 -0.12)">
       <use xlink:href="#DejaVuSans-30"/>
      </g>
     </g>
    </g>
    <g id="ytick_2">
     <g id="line2d_15">
      <path d="M 71.915 170.058406 
L 511.285079 170.058406 
" clip-path="url(#p7632dfbb60)" style="fill: none; stroke-dasharray: 6.4,1.6,1,1.6; stroke-dashoffset: 0; stroke: #808080; stroke-opacity: 0.2"/>
     </g>
     <g id="line2d_16">
      <g>
       <use xlink:href="#mfa2a6f17d6" x="71.915" y="170.058406" style="fill: #ff0000; stroke: #ff0000; stroke-width: 0.8"/>
      </g>
     </g>
     <g id="text_9">
      <!-- 5000 -->
      <g style="fill: #ff0000" transform="translate(34.375 174.617469) scale(0.12 -0.12)">
       <defs>
        <path id="DejaVuSans-35" d="M 691 4666 
L 3169 4666 
L 3169 4134 
L 1269 4134 
L 1269 2991 
Q 1406 3038 1543 3061 
Q 1681 3084 1819 3084 
Q 2600 3084 3056 2656 
Q 3513 2228 3513 1497 
Q 3513 744 3044 326 
Q 2575 -91 1722 -91 
Q 1428 -91 1123 -41 
Q 819 9 494 109 
L 494 744 
Q 775 591 1075 516 
Q 1375 441 1709 441 
Q 2250 441 2565 725 
Q 2881 1009 2881 1497 
Q 2881 1984 2565 2268 
Q 2250 2553 1709 2553 
Q 1456 2553 1204 2497 
Q 953 2441 691 2322 
L 691 4666 
z
" transform="scale(0.015625)"/>
       </defs>
       <use xlink:href="#DejaVuSans-35"/>
       <use xlink:href="#DejaVuSans-30" x="63.623047"/>
       <use xlink:href="#DejaVuSans-30" x="127.246094"/>
       <use xlink:href="#DejaVuSans-30" x="190.869141"/>
      </g>
     </g>
    </g>
    <g id="ytick_3">
     <g id="line2d_17">
      <path d="M 71.915 124.561165 
L 511.285079 124.561165 
" clip-path="url(#p7632dfbb60)" style="fill: none; stroke-dasharray: 6.4,1.6,1,1.6; stroke-dashoffset: 0; stroke: #808080; stroke-opacity: 0.2"/>
     </g>
     <g id="line2d_18">
      <g>
       <use xlink:href="#mfa2a6f17d6" x="71.915" y="124.561165" style="fill: #ff0000; stroke: #ff0000; stroke-width: 0.8"/>
      </g>
     </g>
     <g id="text_10">
      <!-- 10000 -->
      <g style="fill: #ff0000" transform="translate(26.74 129.120227) scale(0.12 -0.12)">
       <use xlink:href="#DejaVuSans-31"/>
       <use xlink:href="#DejaVuSans-30" x="63.623047"/>
       <use xlink:href="#DejaVuSans-30" x="127.246094"/>
       <use xlink:href="#DejaVuSans-30" x="190.869141"/>
       <use xlink:href="#DejaVuSans-30" x="254.492188"/>
      </g>
     </g>
    </g>
    <g id="ytick_4">
     <g id="line2d_19">
      <path d="M 71.915 79.063923 
L 511.285079 79.063923 
" clip-path="url(#p7632dfbb60)" style="fill: none; stroke-dasharray: 6.4,1.6,1,1.6; stroke-dashoffset: 0; stroke: #808080; stroke-opacity: 0.2"/>
     </g>
     <g id="line2d_20">
      <g>
       <use xlink:href="#mfa2a6f17d6" x="71.915" y="79.063923" style="fill: #ff0000; stroke: #ff0000; stroke-width: 0.8"/>
      </g>
     </g>
     <g id="text_11">
      <!-- 15000 -->
      <g style="fill: #ff0000" transform="translate(26.74 83.622986) scale(0.12 -0.12)">
       <use xlink:href="#DejaVuSans-31"/>
       <use xlink:href="#DejaVuSans-35" x="63.623047"/>
       <use xlink:href="#DejaVuSans-30" x="127.246094"/>
       <use xlink:href="#DejaVuSans-30" x="190.869141"/>
       <use xlink:href="#DejaVuSans-30" x="254.492188"/>
      </g>
     </g>
    </g>
    <g id="ytick_5">
     <g id="line2d_21">
      <path d="M 71.915 33.566682 
L 511.285079 33.566682 
" clip-path="url(#p7632dfbb60)" style="fill: none; stroke-dasharray: 6.4,1.6,1,1.6; stroke-dashoffset: 0; stroke: #808080; stroke-opacity: 0.2"/>
     </g>
     <g id="line2d_22">
      <g>
       <use xlink:href="#mfa2a6f17d6" x="71.915" y="33.566682" style="fill: #ff0000; stroke: #ff0000; stroke-width: 0.8"/>
      </g>
     </g>
     <g id="text_12">
      <!-- 20000 -->
      <g style="fill: #ff0000" transform="translate(26.74 38.125744) scale(0.12 -0.12)">
       <use xlink:href="#DejaVuSans-32"/>
       <use xlink:href="#DejaVuSans-30" x="63.623047"/>
       <use xlink:href="#DejaVuSans-30" x="127.246094"/>
       <use xlink:href="#DejaVuSans-30" x="190.869141"/>
       <use xlink:href="#DejaVuSans-30" x="254.492188"/>
      </g>
     </g>
    </g>
    <g id="text_13">
     <!-- rpm ($rot \cdot min^{-1}$) -->
     <g style="fill: #ff0000" transform="translate(19.8 174.013858) rotate(-90) scale(0.14 -0.14)">
      <defs>
       <path id="DejaVuSans-72" d="M 2631 2963 
Q 2534 3019 2420 3045 
Q 2306 3072 2169 3072 
Q 1681 3072 1420 2755 
Q 1159 2438 1159 1844 
L 1159 0 
L 581 0 
L 581 3500 
L 1159 3500 
L 1159 2956 
Q 1341 3275 1631 3429 
Q 1922 3584 2338 3584 
Q 2397 3584 2469 3576 
Q 2541 3569 2628 3553 
L 2631 2963 
z
" transform="scale(0.015625)"/>
       <path id="DejaVuSans-70" d="M 1159 525 
L 1159 -1331 
L 581 -1331 
L 581 3500 
L 1159 3500 
L 1159 2969 
Q 1341 3281 1617 3432 
Q 1894 3584 2278 3584 
Q 2916 3584 3314 3078 
Q 3713 2572 3713 1747 
Q 3713 922 3314 415 
Q 2916 -91 2278 -91 
Q 1894 -91 1617 61 
Q 1341 213 1159 525 
z
M 3116 1747 
Q 3116 2381 2855 2742 
Q 2594 3103 2138 3103 
Q 1681 3103 1420 2742 
Q 1159 2381 1159 1747 
Q 1159 1113 1420 752 
Q 1681 391 2138 391 
Q 2594 391 2855 752 
Q 3116 1113 3116 1747 
z
" transform="scale(0.015625)"/>
       <path id="DejaVuSans-Oblique-72" d="M 2853 2969 
Q 2766 3016 2653 3041 
Q 2541 3066 2413 3066 
Q 1953 3066 1609 2717 
Q 1266 2369 1153 1784 
L 800 0 
L 225 0 
L 909 3500 
L 1484 3500 
L 1375 2956 
Q 1603 3259 1920 3421 
Q 2238 3584 2597 3584 
Q 2691 3584 2781 3573 
Q 2872 3563 2963 3538 
L 2853 2969 
z
" transform="scale(0.015625)"/>
       <path id="DejaVuSans-Oblique-6f" d="M 1625 -91 
Q 1009 -91 651 289 
Q 294 669 294 1325 
Q 294 1706 417 2101 
Q 541 2497 738 2766 
Q 1047 3184 1428 3384 
Q 1809 3584 2291 3584 
Q 2888 3584 3255 3212 
Q 3622 2841 3622 2241 
Q 3622 1825 3500 1412 
Q 3378 1000 3181 728 
Q 2875 309 2494 109 
Q 2113 -91 1625 -91 
z
M 891 1344 
Q 891 869 1089 633 
Q 1288 397 1691 397 
Q 2269 397 2648 901 
Q 3028 1406 3028 2181 
Q 3028 2634 2825 2865 
Q 2622 3097 2228 3097 
Q 1903 3097 1650 2945 
Q 1397 2794 1197 2484 
Q 1050 2253 970 1956 
Q 891 1659 891 1344 
z
" transform="scale(0.015625)"/>
       <path id="DejaVuSans-Oblique-74" d="M 2706 3500 
L 2619 3053 
L 1472 3053 
L 1100 1153 
Q 1081 1047 1072 975 
Q 1063 903 1063 863 
Q 1063 663 1183 572 
Q 1303 481 1569 481 
L 2150 481 
L 2053 0 
L 1503 0 
Q 991 0 739 200 
Q 488 400 488 806 
Q 488 878 497 964 
Q 506 1050 525 1153 
L 897 3053 
L 409 3053 
L 500 3500 
L 978 3500 
L 1172 4494 
L 1747 4494 
L 1556 3500 
L 2706 3500 
z
" transform="scale(0.015625)"/>
       <path id="DejaVuSans-22c5" d="M 684 2619 
L 1344 2619 
L 1344 1825 
L 684 1825 
L 684 2619 
z
" transform="scale(0.015625)"/>
       <path id="DejaVuSans-Oblique-6d" d="M 5747 2113 
L 5338 0 
L 4763 0 
L 5166 2094 
Q 5191 2228 5203 2325 
Q 5216 2422 5216 2491 
Q 5216 2772 5059 2928 
Q 4903 3084 4622 3084 
Q 4203 3084 3875 2770 
Q 3547 2456 3450 1953 
L 3066 0 
L 2491 0 
L 2900 2094 
Q 2925 2209 2937 2307 
Q 2950 2406 2950 2484 
Q 2950 2769 2794 2926 
Q 2638 3084 2363 3084 
Q 1938 3084 1609 2770 
Q 1281 2456 1184 1953 
L 800 0 
L 225 0 
L 909 3500 
L 1484 3500 
L 1375 2956 
Q 1609 3263 1923 3423 
Q 2238 3584 2597 3584 
Q 2978 3584 3223 3384 
Q 3469 3184 3519 2828 
Q 3781 3197 4126 3390 
Q 4472 3584 4856 3584 
Q 5306 3584 5551 3325 
Q 5797 3066 5797 2591 
Q 5797 2488 5784 2364 
Q 5772 2241 5747 2113 
z
" transform="scale(0.015625)"/>
       <path id="DejaVuSans-Oblique-69" d="M 1172 4863 
L 1747 4863 
L 1606 4134 
L 1031 4134 
L 1172 4863 
z
M 909 3500 
L 1484 3500 
L 800 0 
L 225 0 
L 909 3500 
z
" transform="scale(0.015625)"/>
       <path id="DejaVuSans-Oblique-6e" d="M 3566 2113 
L 3156 0 
L 2578 0 
L 2988 2091 
Q 3016 2238 3031 2350 
Q 3047 2463 3047 2528 
Q 3047 2791 2881 2937 
Q 2716 3084 2419 3084 
Q 1956 3084 1622 2776 
Q 1288 2469 1184 1941 
L 800 0 
L 225 0 
L 903 3500 
L 1478 3500 
L 1363 2950 
Q 1603 3253 1940 3418 
Q 2278 3584 2650 3584 
Q 3113 3584 3367 3334 
Q 3622 3084 3622 2631 
Q 3622 2519 3608 2391 
Q 3594 2263 3566 2113 
z
" transform="scale(0.015625)"/>
       <path id="DejaVuSans-2212" d="M 678 2272 
L 4684 2272 
L 4684 1741 
L 678 1741 
L 678 2272 
z
" transform="scale(0.015625)"/>
      </defs>
      <use xlink:href="#DejaVuSans-72" transform="translate(0 0.684375)"/>
      <use xlink:href="#DejaVuSans-70" transform="translate(41.113281 0.684375)"/>
      <use xlink:href="#DejaVuSans-6d" transform="translate(104.589844 0.684375)"/>
      <use xlink:href="#DejaVuSans-20" transform="translate(202.001953 0.684375)"/>
      <use xlink:href="#DejaVuSans-28" transform="translate(233.789062 0.684375)"/>
      <use xlink:href="#DejaVuSans-Oblique-72" transform="translate(272.802734 0.684375)"/>
      <use xlink:href="#DejaVuSans-Oblique-6f" transform="translate(313.916016 0.684375)"/>
      <use xlink:href="#DejaVuSans-Oblique-74" transform="translate(375.097656 0.684375)"/>
      <use xlink:href="#DejaVuSans-22c5" transform="translate(433.789062 0.684375)"/>
      <use xlink:href="#DejaVuSans-Oblique-6d" transform="translate(485.058594 0.684375)"/>
      <use xlink:href="#DejaVuSans-Oblique-69" transform="translate(582.470703 0.684375)"/>
      <use xlink:href="#DejaVuSans-Oblique-6e" transform="translate(610.253906 0.684375)"/>
      <use xlink:href="#DejaVuSans-2212" transform="translate(678.282708 38.965625) scale(0.7)"/>
      <use xlink:href="#DejaVuSans-31" transform="translate(736.935052 38.965625) scale(0.7)"/>
      <use xlink:href="#DejaVuSans-29" transform="translate(784.20556 0.684375)"/>
     </g>
    </g>
   </g>
   <g id="line2d_23">
    <path d="M 91.886367 215.546457 
L 202.34924 215.410433 
L 243.172476 215.152939 
L 269.58751 214.77649 
L 289.198673 214.283815 
L 304.807557 213.677176 
L 317.614846 212.968752 
L 328.821225 212.132849 
L 338.426692 211.204418 
L 347.231704 210.133681 
L 355.23626 208.933243 
L 362.44036 207.62719 
L 368.844005 206.251516 
L 374.847422 204.745789 
L 380.450611 203.121351 
L 385.653572 201.395118 
L 390.856534 199.429234 
L 395.659267 197.373167 
L 400.061773 195.258944 
L 404.464279 192.898882 
L 408.466557 190.516049 
L 412.468835 187.882612 
L 416.471113 184.972213 
L 420.073163 182.09204 
L 423.675213 178.940629 
L 427.277264 175.492436 
L 430.879314 171.719511 
L 434.481364 167.591275 
L 437.683186 163.596463 
L 440.885009 159.268935 
L 444.086831 154.580979 
L 447.288654 149.502578 
L 450.490476 144.001211 
L 453.692298 138.041652 
L 456.894121 131.585739 
L 460.095943 124.592131 
L 463.297766 117.016047 
L 466.499588 108.808972 
L 469.70141 99.918355 
L 472.903233 90.287264 
L 476.105055 79.854028 
L 479.306878 68.551838 
L 482.5087 56.308321 
L 485.310295 44.761587 
L 488.111889 32.377621 
L 490.913484 19.095715 
L 491.313712 17.12126 
L 491.313712 17.12126 
" clip-path="url(#p7632dfbb60)" style="fill: none; stroke: #ff0000; stroke-width: 2; stroke-linecap: square"/>
   </g>
   <g id="patch_3">
    <path d="M 71.915 225.467717 
L 71.915 7.2 
" style="fill: none; stroke: #000000; stroke-width: 0.8; stroke-linejoin: miter; stroke-linecap: square"/>
   </g>
   <g id="patch_4">
    <path d="M 511.285079 225.467717 
L 511.285079 7.2 
" style="fill: none; stroke: #000000; stroke-width: 0.8; stroke-linejoin: miter; stroke-linecap: square"/>
   </g>
   <g id="patch_5">
    <path d="M 71.915 225.467717 
L 511.285079 225.467717 
" style="fill: none; stroke: #000000; stroke-width: 0.8; stroke-linejoin: miter; stroke-linecap: square"/>
   </g>
   <g id="patch_6">
    <path d="M 71.915 7.2 
L 511.285079 7.2 
" style="fill: none; stroke: #000000; stroke-width: 0.8; stroke-linejoin: miter; stroke-linecap: square"/>
   </g>
   <g id="legend_1">
    <g id="patch_7">
     <path d="M 80.315 34.41375 
L 194.795 34.41375 
Q 197.195 34.41375 197.195 32.01375 
L 197.195 15.6 
Q 197.195 13.2 194.795 13.2 
L 80.315 13.2 
Q 77.915 13.2 77.915 15.6 
L 77.915 32.01375 
Q 77.915 34.41375 80.315 34.41375 
z
" style="fill: #ffffff; opacity: 0.8; stroke: #cccccc; stroke-linejoin: miter"/>
    </g>
    <g id="line2d_24">
     <path d="M 82.715 22.918125 
L 94.715 22.918125 
L 106.715 22.918125 
" style="fill: none; stroke: #ff0000; stroke-width: 2; stroke-linecap: square"/>
    </g>
    <g id="text_14">
     <!-- motor speed -->
     <g transform="translate(116.315 27.118125) scale(0.12 -0.12)">
      <defs>
       <path id="DejaVuSans-6f" d="M 1959 3097 
Q 1497 3097 1228 2736 
Q 959 2375 959 1747 
Q 959 1119 1226 758 
Q 1494 397 1959 397 
Q 2419 397 2687 759 
Q 2956 1122 2956 1747 
Q 2956 2369 2687 2733 
Q 2419 3097 1959 3097 
z
M 1959 3584 
Q 2709 3584 3137 3096 
Q 3566 2609 3566 1747 
Q 3566 888 3137 398 
Q 2709 -91 1959 -91 
Q 1206 -91 779 398 
Q 353 888 353 1747 
Q 353 2609 779 3096 
Q 1206 3584 1959 3584 
z
" transform="scale(0.015625)"/>
       <path id="DejaVuSans-73" d="M 2834 3397 
L 2834 2853 
Q 2591 2978 2328 3040 
Q 2066 3103 1784 3103 
Q 1356 3103 1142 2972 
Q 928 2841 928 2578 
Q 928 2378 1081 2264 
Q 1234 2150 1697 2047 
L 1894 2003 
Q 2506 1872 2764 1633 
Q 3022 1394 3022 966 
Q 3022 478 2636 193 
Q 2250 -91 1575 -91 
Q 1294 -91 989 -36 
Q 684 19 347 128 
L 347 722 
Q 666 556 975 473 
Q 1284 391 1588 391 
Q 1994 391 2212 530 
Q 2431 669 2431 922 
Q 2431 1156 2273 1281 
Q 2116 1406 1581 1522 
L 1381 1569 
Q 847 1681 609 1914 
Q 372 2147 372 2553 
Q 372 3047 722 3315 
Q 1072 3584 1716 3584 
Q 2034 3584 2315 3537 
Q 2597 3491 2834 3397 
z
" transform="scale(0.015625)"/>
       <path id="DejaVuSans-64" d="M 2906 2969 
L 2906 4863 
L 3481 4863 
L 3481 0 
L 2906 0 
L 2906 525 
Q 2725 213 2448 61 
Q 2172 -91 1784 -91 
Q 1150 -91 751 415 
Q 353 922 353 1747 
Q 353 2572 751 3078 
Q 1150 3584 1784 3584 
Q 2172 3584 2448 3432 
Q 2725 3281 2906 2969 
z
M 947 1747 
Q 947 1113 1208 752 
Q 1469 391 1925 391 
Q 2381 391 2643 752 
Q 2906 1113 2906 1747 
Q 2906 2381 2643 2742 
Q 2381 3103 1925 3103 
Q 1469 3103 1208 2742 
Q 947 2381 947 1747 
z
" transform="scale(0.015625)"/>
      </defs>
      <use xlink:href="#DejaVuSans-6d"/>
      <use xlink:href="#DejaVuSans-6f" x="97.412109"/>
      <use xlink:href="#DejaVuSans-74" x="158.59375"/>
      <use xlink:href="#DejaVuSans-6f" x="197.802734"/>
      <use xlink:href="#DejaVuSans-72" x="258.984375"/>
      <use xlink:href="#DejaVuSans-20" x="300.097656"/>
      <use xlink:href="#DejaVuSans-73" x="331.884766"/>
      <use xlink:href="#DejaVuSans-70" x="383.984375"/>
      <use xlink:href="#DejaVuSans-65" x="447.460938"/>
      <use xlink:href="#DejaVuSans-65" x="508.984375"/>
      <use xlink:href="#DejaVuSans-64" x="570.507812"/>
     </g>
    </g>
   </g>
  </g>
  <g id="axes_2">
   <g id="matplotlib.axis_3">
    <g id="ytick_6">
     <g id="line2d_25">
      <defs>
       <path id="m5e480104af" d="M 0 0 
L 3.5 0 
" style="stroke: #000000; stroke-width: 0.8"/>
      </defs>
      <g>
       <use xlink:href="#m5e480104af" x="511.285079" y="221.3943" style="stroke: #000000; stroke-width: 0.8"/>
      </g>
     </g>
     <g id="text_15">
      <!-- −10.0 -->
      <g style="fill: #0000ff" transform="translate(518.285079 225.953363) scale(0.12 -0.12)">
       <defs>
        <path id="DejaVuSans-2e" d="M 684 794 
L 1344 794 
L 1344 0 
L 684 0 
L 684 794 
z
" transform="scale(0.015625)"/>
       </defs>
       <use xlink:href="#DejaVuSans-2212"/>
       <use xlink:href="#DejaVuSans-31" x="83.789062"/>
       <use xlink:href="#DejaVuSans-30" x="147.412109"/>
       <use xlink:href="#DejaVuSans-2e" x="211.035156"/>
       <use xlink:href="#DejaVuSans-30" x="242.822266"/>
      </g>
     </g>
    </g>
    <g id="ytick_7">
     <g id="line2d_26">
      <g>
       <use xlink:href="#m5e480104af" x="511.285079" y="195.769767" style="stroke: #000000; stroke-width: 0.8"/>
      </g>
     </g>
     <g id="text_16">
      <!-- −7.5 -->
      <g style="fill: #0000ff" transform="translate(518.285079 200.328829) scale(0.12 -0.12)">
       <defs>
        <path id="DejaVuSans-37" d="M 525 4666 
L 3525 4666 
L 3525 4397 
L 1831 0 
L 1172 0 
L 2766 4134 
L 525 4134 
L 525 4666 
z
" transform="scale(0.015625)"/>
       </defs>
       <use xlink:href="#DejaVuSans-2212"/>
       <use xlink:href="#DejaVuSans-37" x="83.789062"/>
       <use xlink:href="#DejaVuSans-2e" x="147.412109"/>
       <use xlink:href="#DejaVuSans-35" x="179.199219"/>
      </g>
     </g>
    </g>
    <g id="ytick_8">
     <g id="line2d_27">
      <g>
       <use xlink:href="#m5e480104af" x="511.285079" y="170.145234" style="stroke: #000000; stroke-width: 0.8"/>
      </g>
     </g>
     <g id="text_17">
      <!-- −5.0 -->
      <g style="fill: #0000ff" transform="translate(518.285079 174.704296) scale(0.12 -0.12)">
       <use xlink:href="#DejaVuSans-2212"/>
       <use xlink:href="#DejaVuSans-35" x="83.789062"/>
       <use xlink:href="#DejaVuSans-2e" x="147.412109"/>
       <use xlink:href="#DejaVuSans-30" x="179.199219"/>
      </g>
     </g>
    </g>
    <g id="ytick_9">
     <g id="line2d_28">
      <g>
       <use xlink:href="#m5e480104af" x="511.285079" y="144.5207" style="stroke: #000000; stroke-width: 0.8"/>
      </g>
     </g>
     <g id="text_18">
      <!-- −2.5 -->
      <g style="fill: #0000ff" transform="translate(518.285079 149.079763) scale(0.12 -0.12)">
       <use xlink:href="#DejaVuSans-2212"/>
       <use xlink:href="#DejaVuSans-32" x="83.789062"/>
       <use xlink:href="#DejaVuSans-2e" x="147.412109"/>
       <use xlink:href="#DejaVuSans-35" x="179.199219"/>
      </g>
     </g>
    </g>
    <g id="ytick_10">
     <g id="line2d_29">
      <g>
       <use xlink:href="#m5e480104af" x="511.285079" y="118.896167" style="stroke: #000000; stroke-width: 0.8"/>
      </g>
     </g>
     <g id="text_19">
      <!-- 0.0 -->
      <g style="fill: #0000ff" transform="translate(518.285079 123.45523) scale(0.12 -0.12)">
       <use xlink:href="#DejaVuSans-30"/>
       <use xlink:href="#DejaVuSans-2e" x="63.623047"/>
       <use xlink:href="#DejaVuSans-30" x="95.410156"/>
      </g>
     </g>
    </g>
    <g id="ytick_11">
     <g id="line2d_30">
      <g>
       <use xlink:href="#m5e480104af" x="511.285079" y="93.271634" style="stroke: #000000; stroke-width: 0.8"/>
      </g>
     </g>
     <g id="text_20">
      <!-- 2.5 -->
      <g style="fill: #0000ff" transform="translate(518.285079 97.830696) scale(0.12 -0.12)">
       <use xlink:href="#DejaVuSans-32"/>
       <use xlink:href="#DejaVuSans-2e" x="63.623047"/>
       <use xlink:href="#DejaVuSans-35" x="95.410156"/>
      </g>
     </g>
    </g>
    <g id="ytick_12">
     <g id="line2d_31">
      <g>
       <use xlink:href="#m5e480104af" x="511.285079" y="67.647101" style="stroke: #000000; stroke-width: 0.8"/>
      </g>
     </g>
     <g id="text_21">
      <!-- 5.0 -->
      <g style="fill: #0000ff" transform="translate(518.285079 72.206163) scale(0.12 -0.12)">
       <use xlink:href="#DejaVuSans-35"/>
       <use xlink:href="#DejaVuSans-2e" x="63.623047"/>
       <use xlink:href="#DejaVuSans-30" x="95.410156"/>
      </g>
     </g>
    </g>
    <g id="ytick_13">
     <g id="line2d_32">
      <g>
       <use xlink:href="#m5e480104af" x="511.285079" y="42.022567" style="stroke: #000000; stroke-width: 0.8"/>
      </g>
     </g>
     <g id="text_22">
      <!-- 7.5 -->
      <g style="fill: #0000ff" transform="translate(518.285079 46.58163) scale(0.12 -0.12)">
       <use xlink:href="#DejaVuSans-37"/>
       <use xlink:href="#DejaVuSans-2e" x="63.623047"/>
       <use xlink:href="#DejaVuSans-35" x="95.410156"/>
      </g>
     </g>
    </g>
    <g id="ytick_14">
     <g id="line2d_33">
      <g>
       <use xlink:href="#m5e480104af" x="511.285079" y="16.398034" style="stroke: #000000; stroke-width: 0.8"/>
      </g>
     </g>
     <g id="text_23">
      <!-- 10.0 -->
      <g style="fill: #0000ff" transform="translate(518.285079 20.957097) scale(0.12 -0.12)">
       <use xlink:href="#DejaVuSans-31"/>
       <use xlink:href="#DejaVuSans-30" x="63.623047"/>
       <use xlink:href="#DejaVuSans-2e" x="127.246094"/>
       <use xlink:href="#DejaVuSans-30" x="159.033203"/>
      </g>
     </g>
    </g>
    <g id="text_24">
     <!-- vibration signal ($mm$) -->
     <g style="fill: #0000ff" transform="translate(569.699454 191.723858) rotate(-90) scale(0.14 -0.14)">
      <defs>
       <path id="DejaVuSans-76" d="M 191 3500 
L 800 3500 
L 1894 563 
L 2988 3500 
L 3597 3500 
L 2284 0 
L 1503 0 
L 191 3500 
z
" transform="scale(0.015625)"/>
       <path id="DejaVuSans-62" d="M 3116 1747 
Q 3116 2381 2855 2742 
Q 2594 3103 2138 3103 
Q 1681 3103 1420 2742 
Q 1159 2381 1159 1747 
Q 1159 1113 1420 752 
Q 1681 391 2138 391 
Q 2594 391 2855 752 
Q 3116 1113 3116 1747 
z
M 1159 2969 
Q 1341 3281 1617 3432 
Q 1894 3584 2278 3584 
Q 2916 3584 3314 3078 
Q 3713 2572 3713 1747 
Q 3713 922 3314 415 
Q 2916 -91 2278 -91 
Q 1894 -91 1617 61 
Q 1341 213 1159 525 
L 1159 0 
L 581 0 
L 581 4863 
L 1159 4863 
L 1159 2969 
z
" transform="scale(0.015625)"/>
       <path id="DejaVuSans-61" d="M 2194 1759 
Q 1497 1759 1228 1600 
Q 959 1441 959 1056 
Q 959 750 1161 570 
Q 1363 391 1709 391 
Q 2188 391 2477 730 
Q 2766 1069 2766 1631 
L 2766 1759 
L 2194 1759 
z
M 3341 1997 
L 3341 0 
L 2766 0 
L 2766 531 
Q 2569 213 2275 61 
Q 1981 -91 1556 -91 
Q 1019 -91 701 211 
Q 384 513 384 1019 
Q 384 1609 779 1909 
Q 1175 2209 1959 2209 
L 2766 2209 
L 2766 2266 
Q 2766 2663 2505 2880 
Q 2244 3097 1772 3097 
Q 1472 3097 1187 3025 
Q 903 2953 641 2809 
L 641 3341 
Q 956 3463 1253 3523 
Q 1550 3584 1831 3584 
Q 2591 3584 2966 3190 
Q 3341 2797 3341 1997 
z
" transform="scale(0.015625)"/>
       <path id="DejaVuSans-6e" d="M 3513 2113 
L 3513 0 
L 2938 0 
L 2938 2094 
Q 2938 2591 2744 2837 
Q 2550 3084 2163 3084 
Q 1697 3084 1428 2787 
Q 1159 2491 1159 1978 
L 1159 0 
L 581 0 
L 581 3500 
L 1159 3500 
L 1159 2956 
Q 1366 3272 1645 3428 
Q 1925 3584 2291 3584 
Q 2894 3584 3203 3211 
Q 3513 2838 3513 2113 
z
" transform="scale(0.015625)"/>
       <path id="DejaVuSans-67" d="M 2906 1791 
Q 2906 2416 2648 2759 
Q 2391 3103 1925 3103 
Q 1463 3103 1205 2759 
Q 947 2416 947 1791 
Q 947 1169 1205 825 
Q 1463 481 1925 481 
Q 2391 481 2648 825 
Q 2906 1169 2906 1791 
z
M 3481 434 
Q 3481 -459 3084 -895 
Q 2688 -1331 1869 -1331 
Q 1566 -1331 1297 -1286 
Q 1028 -1241 775 -1147 
L 775 -588 
Q 1028 -725 1275 -790 
Q 1522 -856 1778 -856 
Q 2344 -856 2625 -561 
Q 2906 -266 2906 331 
L 2906 616 
Q 2728 306 2450 153 
Q 2172 0 1784 0 
Q 1141 0 747 490 
Q 353 981 353 1791 
Q 353 2603 747 3093 
Q 1141 3584 1784 3584 
Q 2172 3584 2450 3431 
Q 2728 3278 2906 2969 
L 2906 3500 
L 3481 3500 
L 3481 434 
z
" transform="scale(0.015625)"/>
       <path id="DejaVuSans-6c" d="M 603 4863 
L 1178 4863 
L 1178 0 
L 603 0 
L 603 4863 
z
" transform="scale(0.015625)"/>
      </defs>
      <use xlink:href="#DejaVuSans-76" transform="translate(0 0.015625)"/>
      <use xlink:href="#DejaVuSans-69" transform="translate(59.179688 0.015625)"/>
      <use xlink:href="#DejaVuSans-62" transform="translate(86.962891 0.015625)"/>
      <use xlink:href="#DejaVuSans-72" transform="translate(150.439453 0.015625)"/>
      <use xlink:href="#DejaVuSans-61" transform="translate(191.552734 0.015625)"/>
      <use xlink:href="#DejaVuSans-74" transform="translate(252.832031 0.015625)"/>
      <use xlink:href="#DejaVuSans-69" transform="translate(292.041016 0.015625)"/>
      <use xlink:href="#DejaVuSans-6f" transform="translate(319.824219 0.015625)"/>
      <use xlink:href="#DejaVuSans-6e" transform="translate(381.005859 0.015625)"/>
      <use xlink:href="#DejaVuSans-20" transform="translate(444.384766 0.015625)"/>
      <use xlink:href="#DejaVuSans-73" transform="translate(476.171875 0.015625)"/>
      <use xlink:href="#DejaVuSans-69" transform="translate(528.271484 0.015625)"/>
      <use xlink:href="#DejaVuSans-67" transform="translate(556.054688 0.015625)"/>
      <use xlink:href="#DejaVuSans-6e" transform="translate(619.53125 0.015625)"/>
      <use xlink:href="#DejaVuSans-61" transform="translate(682.910156 0.015625)"/>
      <use xlink:href="#DejaVuSans-6c" transform="translate(744.189453 0.015625)"/>
      <use xlink:href="#DejaVuSans-20" transform="translate(771.972656 0.015625)"/>
      <use xlink:href="#DejaVuSans-28" transform="translate(803.759766 0.015625)"/>
      <use xlink:href="#DejaVuSans-Oblique-6d" transform="translate(842.773438 0.015625)"/>
      <use xlink:href="#DejaVuSans-Oblique-6d" transform="translate(940.185547 0.015625)"/>
      <use xlink:href="#DejaVuSans-29" transform="translate(1037.597656 0.015625)"/>
     </g>
    </g>
   </g>
   <g id="line2d_34">
    <path d="M 91.886367 118.805828 
L 93.887506 118.470441 
L 95.488417 118.392868 
L 97.089329 118.524564 
L 98.69024 118.876575 
L 100.291151 119.433728 
L 102.29229 120.354144 
L 107.495251 122.915086 
L 109.096163 123.399939 
L 110.296846 123.574691 
L 111.497529 123.556232 
L 112.698213 123.324732 
L 113.898896 122.869607 
L 115.09958 122.190559 
L 116.300263 121.298168 
L 117.901174 119.815254 
L 119.902313 117.608512 
L 124.705047 112.067069 
L 126.305958 110.640363 
L 127.506641 109.853599 
L 128.707325 109.364378 
L 129.50778 109.223211 
L 130.308236 109.240491 
L 131.108692 109.422297 
L 131.909147 109.771919 
L 133.109831 110.610954 
L 134.310514 111.816005 
L 135.511197 113.359881 
L 137.112109 115.870259 
L 139.113248 119.532729 
L 143.515753 127.91393 
L 145.116665 130.413995 
L 146.317348 131.896686 
L 147.518031 132.962384 
L 148.318487 133.411658 
L 149.118943 133.635784 
L 149.919398 133.624776 
L 150.719854 133.372397 
L 151.520309 132.87636 
L 152.320765 132.138463 
L 153.121221 131.164656 
L 154.321904 129.284816 
L 155.522587 126.948947 
L 157.123499 123.249228 
L 159.124638 117.992142 
L 163.126916 107.352022 
L 164.727827 103.83924 
L 165.92851 101.733125 
L 166.728966 100.633908 
L 167.529421 99.806301 
L 168.329877 99.269588 
L 169.130333 99.038627 
L 169.930788 99.123514 
L 170.731244 99.529319 
L 171.531699 100.255909 
L 172.332155 101.297852 
L 173.132611 102.644403 
L 174.333294 105.199031 
L 175.533977 108.326894 
L 177.134889 113.215953 
L 179.536255 121.484653 
L 182.33785 131.153974 
L 183.938761 135.982919 
L 185.139445 139.00939 
L 186.340128 141.386116 
L 187.140584 142.55757 
L 187.941039 143.369176 
L 188.741495 143.801809 
L 189.54195 143.842211 
L 190.342406 143.483301 
L 191.142862 142.724387 
L 191.943317 141.571279 
L 192.743773 140.036296 
L 193.944456 137.060463 
L 195.14514 133.357988 
L 196.746051 127.49812 
L 198.74719 119.187868 
L 202.34924 103.938402 
L 203.950151 98.110984 
L 205.150835 94.485248 
L 206.351518 91.661503 
L 207.151974 90.28468 
L 207.952429 89.345771 
L 208.752885 88.865907 
L 209.153113 88.802782 
L 209.55334 88.859094 
L 210.353796 89.331881 
L 211.154252 90.283164 
L 211.954707 91.7041 
L 212.755163 93.578147 
L 213.955846 97.184157 
L 215.15653 101.642488 
L 216.757441 108.658862 
L 219.158808 120.60258 
L 222.36063 136.553889 
L 223.961541 143.379781 
L 225.162225 147.604784 
L 226.362908 150.875546 
L 227.163364 152.457738 
L 227.963819 153.523951 
L 228.764275 154.051044 
L 229.164503 154.107475 
L 229.56473 154.02427 
L 229.964958 153.800953 
L 230.765414 152.934871 
L 231.565869 151.516618 
L 232.366325 149.562538 
L 233.166781 147.097758 
L 234.367464 142.518765 
L 235.568147 137.014921 
L 237.169059 128.557839 
L 239.970653 112.167714 
L 242.37202 98.538487 
L 243.972931 90.714122 
L 245.173615 85.889853 
L 246.374298 82.172073 
L 247.174754 80.384512 
L 247.975209 79.190995 
L 248.375437 78.825235 
L 248.775665 78.616672 
L 249.175893 78.566937 
L 249.57612 78.677035 
L 249.976348 78.947337 
L 250.776804 79.966845 
L 251.577259 81.615652 
L 252.377715 83.873778 
L 253.178171 86.7113 
L 254.378854 91.965083 
L 255.579537 98.260919 
L 257.180449 107.907343 
L 260.382271 129.207555 
L 262.38341 141.953805 
L 263.984321 150.776644 
L 265.185005 156.200178 
L 265.98546 159.127814 
L 266.785916 161.443345 
L 267.586371 163.104278 
L 268.386827 164.078187 
L 268.787055 164.30028 
L 269.187283 164.34332 
L 269.58751 164.206329 
L 269.987738 163.889042 
L 270.387966 163.391911 
L 271.188422 161.863519 
L 271.988877 159.639098 
L 272.789333 156.747861 
L 273.990016 151.251319 
L 275.1907 144.525418 
L 276.791611 134.039529 
L 279.192978 116.387365 
L 281.994572 95.84717 
L 283.595483 85.599812 
L 284.796167 79.155754 
L 285.99685 74.050799 
L 286.797306 71.492006 
L 287.597761 69.664407 
L 288.398217 68.603059 
L 288.798445 68.367437 
L 289.198673 68.331092 
L 289.5989 68.494976 
L 289.999128 68.859248 
L 290.399356 69.423271 
L 291.199812 71.144032 
L 292.000267 73.636281 
L 292.800723 76.866582 
L 294.001406 82.993301 
L 295.20209 90.475059 
L 296.803001 102.117453 
L 299.204368 121.672432 
L 302.005962 144.366277 
L 303.606873 155.660893 
L 304.807557 162.750495 
L 306.00824 168.355256 
L 306.808696 171.157312 
L 307.609151 173.151576 
L 308.409607 174.300364 
L 308.809835 174.549515 
L 309.210063 174.579165 
L 309.61029 174.388388 
L 310.010518 173.97713 
L 310.410746 173.346216 
L 311.211202 171.433085 
L 312.011657 168.673007 
L 312.812113 165.103644 
L 314.012796 158.346747 
L 315.21348 150.109133 
L 316.814391 137.310233 
L 319.215758 115.852439 
L 322.017352 91.004944 
L 323.618263 78.663071 
L 324.818947 70.927925 
L 326.01963 64.823357 
L 326.820086 61.778038 
L 327.620541 59.617109 
L 328.020769 58.881445 
L 328.420997 58.380882 
L 328.821225 58.118201 
L 329.221453 58.095247 
L 329.62168 58.312917 
L 330.021908 58.771159 
L 330.422136 59.468965 
L 331.222592 61.574466 
L 332.023047 64.602372 
L 332.823503 68.510799 
L 334.024186 75.897873 
L 335.22487 84.891344 
L 336.825781 98.846749 
L 339.227148 122.207358 
L 342.028742 149.208504 
L 343.629653 162.597634 
L 344.830337 170.978324 
L 346.03102 177.582698 
L 346.831476 180.87128 
L 347.631931 183.198874 
L 348.032159 183.988277 
L 348.432387 184.52254 
L 348.832615 184.798751 
L 349.232843 184.81501 
L 349.63307 184.570447 
L 350.033298 184.065219 
L 350.433526 183.300521 
L 351.233982 181.002651 
L 352.034437 177.706917 
L 352.834893 173.459426 
L 354.035576 165.442176 
L 355.23626 155.692848 
L 356.837171 140.580938 
L 359.238538 115.317513 
L 362.040132 86.162718 
L 363.641043 71.72633 
L 364.841727 62.700096 
L 366.04241 55.595915 
L 366.842866 52.064071 
L 367.643321 49.569811 
L 368.043549 48.726669 
L 368.443777 48.158706 
L 368.844005 47.868966 
L 369.244233 47.859401 
L 369.64446 48.130858 
L 370.044688 48.683071 
L 370.444916 49.51466 
L 371.245372 52.0049 
L 372.045827 55.568463 
L 372.846283 60.155017 
L 374.046966 68.802445 
L 375.24765 79.307629 
L 376.848561 95.576044 
L 379.650155 127.367574 
L 382.051522 154.05073 
L 383.652433 169.534374 
L 384.853117 179.206152 
L 386.0538 186.81014 
L 386.854256 190.585247 
L 387.654711 193.246172 
L 388.054939 194.143052 
L 388.455167 194.744717 
L 388.855395 195.047986 
L 389.255623 195.050855 
L 389.65585 194.752505 
L 390.056078 194.153308 
L 390.456306 193.254827 
L 391.256762 190.572217 
L 392.057217 186.740826 
L 392.857673 181.815208 
L 394.058356 172.537604 
L 395.25904 161.276562 
L 396.859951 143.851642 
L 399.661545 109.836468 
L 402.062912 81.320491 
L 403.663823 64.78959 
L 404.864507 54.472267 
L 406.06519 46.368473 
L 406.865646 42.350103 
L 407.666101 39.522513 
L 408.066329 38.571894 
L 408.466557 37.936529 
L 408.866785 37.619731 
L 409.267013 37.623556 
L 409.66724 37.948799 
L 410.067468 38.594982 
L 410.467696 39.560355 
L 411.268152 42.435334 
L 412.068607 46.534554 
L 412.869063 51.799235 
L 414.069746 61.707017 
L 415.27043 73.723915 
L 416.871341 92.30534 
L 419.672935 128.544158 
L 422.074302 158.892956 
L 423.675213 176.471115 
L 424.875897 187.433981 
L 426.07658 196.037582 
L 426.877036 200.299215 
L 427.677491 203.29347 
L 428.077719 204.297828 
L 428.477947 204.966893 
L 428.878175 205.297221 
L 429.278403 205.286701 
L 429.67863 204.934564 
L 430.078858 204.241396 
L 430.479086 203.209132 
L 431.279542 200.141783 
L 432.079997 195.774735 
L 432.880453 190.170991 
L 434.081136 179.633032 
L 435.28182 166.860277 
L 436.882731 147.122347 
L 439.684325 108.659884 
L 442.085692 76.478265 
L 443.686603 57.852849 
L 444.887287 46.244439 
L 446.08797 37.141031 
L 446.888426 32.636136 
L 447.688881 29.475215 
L 448.089109 28.417119 
L 448.489337 27.714353 
L 448.889565 27.370495 
L 449.289793 27.387711 
L 449.69002 27.766741 
L 450.090248 28.506894 
L 450.490476 29.60605 
L 451.290932 32.865768 
L 452.091387 37.500644 
L 452.891843 43.443452 
L 454.092526 54.611588 
L 455.29321 68.1402 
L 456.894121 89.034635 
L 459.695715 129.720743 
L 462.097082 163.735182 
L 463.697993 183.407856 
L 464.898677 195.66181 
L 466.09936 205.265024 
L 466.899816 210.013182 
L 467.700271 213.340768 
L 468.100499 214.452603 
L 468.500727 215.18907 
L 468.900955 215.546457 
L 469.301183 215.522546 
L 469.70141 215.116623 
L 470.101638 214.329485 
L 470.501866 213.163437 
L 471.302322 209.71135 
L 472.102777 204.808645 
L 472.903233 198.526773 
L 474.103916 186.72846 
L 475.3046 172.443992 
L 476.905511 150.393051 
L 479.707105 107.483299 
L 482.108472 71.636039 
L 483.709383 50.916108 
L 484.910067 38.01661 
L 486.11075 27.913589 
L 486.911206 22.922168 
L 487.711661 19.427917 
L 488.111889 18.262343 
L 488.512117 17.492176 
L 488.912345 17.12126 
L 489.312573 17.151866 
L 489.7128 17.584682 
L 490.113028 18.418805 
L 490.513256 19.651745 
L 491.313712 23.296202 
L 491.313712 23.296202 
" clip-path="url(#p7632dfbb60)" style="fill: none; stroke: #0000ff; stroke-width: 2; stroke-linecap: square"/>
   </g>
   <g id="patch_8">
    <path d="M 71.915 225.467717 
L 71.915 7.2 
" style="fill: none; stroke: #000000; stroke-width: 0.8; stroke-linejoin: miter; stroke-linecap: square"/>
   </g>
   <g id="patch_9">
    <path d="M 511.285079 225.467717 
L 511.285079 7.2 
" style="fill: none; stroke: #000000; stroke-width: 0.8; stroke-linejoin: miter; stroke-linecap: square"/>
   </g>
   <g id="patch_10">
    <path d="M 71.915 225.467717 
L 511.285079 225.467717 
" style="fill: none; stroke: #000000; stroke-width: 0.8; stroke-linejoin: miter; stroke-linecap: square"/>
   </g>
   <g id="patch_11">
    <path d="M 71.915 7.2 
L 511.285079 7.2 
" style="fill: none; stroke: #000000; stroke-width: 0.8; stroke-linejoin: miter; stroke-linecap: square"/>
   </g>
   <g id="legend_2">
    <g id="patch_12">
     <path d="M 80.315 52.0275 
L 211.35125 52.0275 
Q 213.75125 52.0275 213.75125 49.6275 
L 213.75125 15.6 
Q 213.75125 13.2 211.35125 13.2 
L 80.315 13.2 
Q 77.915 13.2 77.915 15.6 
L 77.915 49.6275 
Q 77.915 52.0275 80.315 52.0275 
z
" style="fill: #ffffff; opacity: 0.8; stroke: #cccccc; stroke-linejoin: miter"/>
    </g>
    <g id="line2d_35">
     <path d="M 82.715 22.918125 
L 94.715 22.918125 
L 106.715 22.918125 
" style="fill: none; stroke: #ff0000; stroke-width: 2; stroke-linecap: square"/>
    </g>
    <g id="text_25">
     <!-- motor speed -->
     <g transform="translate(116.315 27.118125) scale(0.12 -0.12)">
      <use xlink:href="#DejaVuSans-6d"/>
      <use xlink:href="#DejaVuSans-6f" x="97.412109"/>
      <use xlink:href="#DejaVuSans-74" x="158.59375"/>
      <use xlink:href="#DejaVuSans-6f" x="197.802734"/>
      <use xlink:href="#DejaVuSans-72" x="258.984375"/>
      <use xlink:href="#DejaVuSans-20" x="300.097656"/>
      <use xlink:href="#DejaVuSans-73" x="331.884766"/>
      <use xlink:href="#DejaVuSans-70" x="383.984375"/>
      <use xlink:href="#DejaVuSans-65" x="447.460938"/>
      <use xlink:href="#DejaVuSans-65" x="508.984375"/>
      <use xlink:href="#DejaVuSans-64" x="570.507812"/>
     </g>
    </g>
    <g id="line2d_36">
     <path d="M 82.715 40.531875 
L 94.715 40.531875 
L 106.715 40.531875 
" style="fill: none; stroke: #0000ff; stroke-width: 2; stroke-linecap: square"/>
    </g>
    <g id="text_26">
     <!-- vibration signal -->
     <g transform="translate(116.315 44.731875) scale(0.12 -0.12)">
      <use xlink:href="#DejaVuSans-76"/>
      <use xlink:href="#DejaVuSans-69" x="59.179688"/>
      <use xlink:href="#DejaVuSans-62" x="86.962891"/>
      <use xlink:href="#DejaVuSans-72" x="150.439453"/>
      <use xlink:href="#DejaVuSans-61" x="191.552734"/>
      <use xlink:href="#DejaVuSans-74" x="252.832031"/>
      <use xlink:href="#DejaVuSans-69" x="292.041016"/>
      <use xlink:href="#DejaVuSans-6f" x="319.824219"/>
      <use xlink:href="#DejaVuSans-6e" x="381.005859"/>
      <use xlink:href="#DejaVuSans-20" x="444.384766"/>
      <use xlink:href="#DejaVuSans-73" x="476.171875"/>
      <use xlink:href="#DejaVuSans-69" x="528.271484"/>
      <use xlink:href="#DejaVuSans-67" x="556.054688"/>
      <use xlink:href="#DejaVuSans-6e" x="619.53125"/>
      <use xlink:href="#DejaVuSans-61" x="682.910156"/>
      <use xlink:href="#DejaVuSans-6c" x="744.189453"/>
     </g>
    </g>
   </g>
  </g>
 </g>
 <defs>
  <clipPath id="p7632dfbb60">
   <rect x="71.915" y="7.2" width="439.370079" height="218.267717"/>
  </clipPath>
 </defs>
</svg>
