<?xml version="1.0" encoding="utf-8" standalone="no"?>
<!DOCTYPE svg PUBLIC "-//W3C//DTD SVG 1.1//EN"
  "http://www.w3.org/Graphics/SVG/1.1/DTD/svg11.dtd">
<svg xmlns:xlink="http://www.w3.org/1999/xlink" width="469.48595pt" height="410.375011pt" viewBox="0 0 469.48595 410.375011" xmlns="http://www.w3.org/2000/svg" version="1.1">
 <metadata>
  <rdf:RDF xmlns:dc="http://purl.org/dc/elements/1.1/" xmlns:cc="http://creativecommons.org/ns#" xmlns:rdf="http://www.w3.org/1999/02/22-rdf-syntax-ns#">
   <cc:Work>
    <dc:type rdf:resource="http://purl.org/dc/dcmitype/StillImage"/>
    <dc:date>2023-11-04T11:58:25.325441</dc:date>
    <dc:format>image/svg+xml</dc:format>
    <dc:creator>
     <cc:Agent>
      <dc:title>Matplotlib v3.7.1, https://matplotlib.org/</dc:title>
     </cc:Agent>
    </dc:creator>
   </cc:Work>
  </rdf:RDF>
 </metadata>
 <defs>
  <style type="text/css">*{stroke-linejoin: round; stroke-linecap: butt}</style>
 </defs>
 <g id="figure_1">
  <g id="patch_1">
   <path d="M 0 410.375011 
L 469.48595 410.375011 
L 469.48595 0 
L 0 0 
L 0 410.375011 
z
" style="fill: none"/>
  </g>
  <g id="axes_1">
   <g id="patch_2">
    <path d="M 398.443762 192.159381 
C 398.443762 170.662391 394.209324 149.374431 385.982782 129.513802 
C 377.75624 109.653172 365.697579 91.606112 350.496912 76.405444 
C 335.296244 61.204777 317.249184 49.146116 297.388554 40.919574 
C 277.527925 32.693032 256.239965 28.458594 234.742975 28.458594 
C 213.245984 28.458594 191.958025 32.693032 172.097396 40.919574 
C 152.236766 49.146116 134.189706 61.204777 118.989038 76.405444 
C 103.78837 91.606112 91.72971 109.653172 83.503168 129.513802 
C 75.276626 149.374431 71.042187 170.662391 71.042187 192.159381 
C 71.042187 213.656372 75.276626 234.944331 83.503168 254.80496 
C 91.72971 274.66559 103.78837 292.71265 118.989038 307.913318 
C 134.189706 323.113986 152.236766 335.172646 172.097396 343.399188 
C 191.958025 351.62573 213.245984 355.860169 234.742975 355.860169 
C 256.239965 355.860169 277.527925 351.62573 297.388554 343.399188 
C 317.249184 335.172646 335.296244 323.113986 350.496912 307.913318 
C 365.697579 292.71265 377.75624 274.66559 385.982782 254.80496 
C 394.209324 234.944331 398.443762 213.656372 398.443762 192.159381 
M 234.742975 192.159381 
C 234.742975 192.159381 234.742975 192.159381 234.742975 192.159381 
C 234.742975 192.159381 234.742975 192.159381 234.742975 192.159381 
C 234.742975 192.159381 234.742975 192.159381 234.742975 192.159381 
C 234.742975 192.159381 234.742975 192.159381 234.742975 192.159381 
C 234.742975 192.159381 234.742975 192.159381 234.742975 192.159381 
C 234.742975 192.159381 234.742975 192.159381 234.742975 192.159381 
C 234.742975 192.159381 234.742975 192.159381 234.742975 192.159381 
C 234.742975 192.159381 234.742975 192.159381 234.742975 192.159381 
C 234.742975 192.159381 234.742975 192.159381 234.742975 192.159381 
C 234.742975 192.159381 234.742975 192.159381 234.742975 192.159381 
C 234.742975 192.159381 234.742975 192.159381 234.742975 192.159381 
C 234.742975 192.159381 234.742975 192.159381 234.742975 192.159381 
C 234.742975 192.159381 234.742975 192.159381 234.742975 192.159381 
C 234.742975 192.159381 234.742975 192.159381 234.742975 192.159381 
C 234.742975 192.159381 234.742975 192.159381 234.742975 192.159381 
C 234.742975 192.159381 234.742975 192.159381 234.742975 192.159381 
L 234.742975 192.159381 
z
" style="fill: none"/>
   </g>
   <g id="patch_3">
    <path d="M 234.742975 76.962531 
L 322.656361 192.159381 
L 234.742975 216.41135 
L 183.207542 192.159381 
z
" clip-path="url(#pa858e4dec7)" style="fill: #ff0000; opacity: 0.05"/>
   </g>
   <g id="patch_4">
    <path d="M 234.742975 187.612137 
L 265.057936 192.159381 
L 234.742975 310.387728 
L 180.176046 192.159381 
z
" clip-path="url(#pa858e4dec7)" style="fill: #ff00ff; opacity: 0.05"/>
   </g>
   <g id="patch_5">
    <path d="M 234.742975 101.214499 
L 262.026439 192.159381 
L 234.742975 261.883791 
L 98.325652 192.159381 
z
" clip-path="url(#pa858e4dec7)" style="opacity: 0.05"/>
   </g>
   <g id="patch_6">
    <path d="M 234.742975 180.033397 
L 337.813841 192.159381 
L 234.742975 264.915287 
L 71.042187 192.159381 
z
" clip-path="url(#pa858e4dec7)" style="fill: #0000ff; opacity: 0.05"/>
   </g>
   <g id="matplotlib.axis_1">
    <g id="xtick_1">
     <g id="line2d_1">
      <path d="M 234.742975 192.159381 
L 234.742975 28.458594 
" clip-path="url(#pa858e4dec7)" style="fill: none; stroke: #b0b0b0; stroke-width: 0.8; stroke-linecap: square"/>
     </g>
     <g id="text_1">
      <!-- score1 -->
      <g transform="translate(209.821881 18.597656) scale(0.15 -0.15)">
       <defs>
        <path id="DejaVuSans-73" d="M 2834 3397 
L 2834 2853 
Q 2591 2978 2328 3040 
Q 2066 3103 1784 3103 
Q 1356 3103 1142 2972 
Q 928 2841 928 2578 
Q 928 2378 1081 2264 
Q 1234 2150 1697 2047 
L 1894 2003 
Q 2506 1872 2764 1633 
Q 3022 1394 3022 966 
Q 3022 478 2636 193 
Q 2250 -91 1575 -91 
Q 1294 -91 989 -36 
Q 684 19 347 128 
L 347 722 
Q 666 556 975 473 
Q 1284 391 1588 391 
Q 1994 391 2212 530 
Q 2431 669 2431 922 
Q 2431 1156 2273 1281 
Q 2116 1406 1581 1522 
L 1381 1569 
Q 847 1681 609 1914 
Q 372 2147 372 2553 
Q 372 3047 722 3315 
Q 1072 3584 1716 3584 
Q 2034 3584 2315 3537 
Q 2597 3491 2834 3397 
z
" transform="scale(0.015625)"/>
        <path id="DejaVuSans-63" d="M 3122 3366 
L 3122 2828 
Q 2878 2963 2633 3030 
Q 2388 3097 2138 3097 
Q 1578 3097 1268 2742 
Q 959 2388 959 1747 
Q 959 1106 1268 751 
Q 1578 397 2138 397 
Q 2388 397 2633 464 
Q 2878 531 3122 666 
L 3122 134 
Q 2881 22 2623 -34 
Q 2366 -91 2075 -91 
Q 1284 -91 818 406 
Q 353 903 353 1747 
Q 353 2603 823 3093 
Q 1294 3584 2113 3584 
Q 2378 3584 2631 3529 
Q 2884 3475 3122 3366 
z
" transform="scale(0.015625)"/>
        <path id="DejaVuSans-6f" d="M 1959 3097 
Q 1497 3097 1228 2736 
Q 959 2375 959 1747 
Q 959 1119 1226 758 
Q 1494 397 1959 397 
Q 2419 397 2687 759 
Q 2956 1122 2956 1747 
Q 2956 2369 2687 2733 
Q 2419 3097 1959 3097 
z
M 1959 3584 
Q 2709 3584 3137 3096 
Q 3566 2609 3566 1747 
Q 3566 888 3137 398 
Q 2709 -91 1959 -91 
Q 1206 -91 779 398 
Q 353 888 353 1747 
Q 353 2609 779 3096 
Q 1206 3584 1959 3584 
z
" transform="scale(0.015625)"/>
        <path id="DejaVuSans-72" d="M 2631 2963 
Q 2534 3019 2420 3045 
Q 2306 3072 2169 3072 
Q 1681 3072 1420 2755 
Q 1159 2438 1159 1844 
L 1159 0 
L 581 0 
L 581 3500 
L 1159 3500 
L 1159 2956 
Q 1341 3275 1631 3429 
Q 1922 3584 2338 3584 
Q 2397 3584 2469 3576 
Q 2541 3569 2628 3553 
L 2631 2963 
z
" transform="scale(0.015625)"/>
        <path id="DejaVuSans-65" d="M 3597 1894 
L 3597 1613 
L 953 1613 
Q 991 1019 1311 708 
Q 1631 397 2203 397 
Q 2534 397 2845 478 
Q 3156 559 3463 722 
L 3463 178 
Q 3153 47 2828 -22 
Q 2503 -91 2169 -91 
Q 1331 -91 842 396 
Q 353 884 353 1716 
Q 353 2575 817 3079 
Q 1281 3584 2069 3584 
Q 2775 3584 3186 3129 
Q 3597 2675 3597 1894 
z
M 3022 2063 
Q 3016 2534 2758 2815 
Q 2500 3097 2075 3097 
Q 1594 3097 1305 2825 
Q 1016 2553 972 2059 
L 3022 2063 
z
" transform="scale(0.015625)"/>
        <path id="DejaVuSans-31" d="M 794 531 
L 1825 531 
L 1825 4091 
L 703 3866 
L 703 4441 
L 1819 4666 
L 2450 4666 
L 2450 531 
L 3481 531 
L 3481 0 
L 794 0 
L 794 531 
z
" transform="scale(0.015625)"/>
       </defs>
       <use xlink:href="#DejaVuSans-73"/>
       <use xlink:href="#DejaVuSans-63" x="52.099609"/>
       <use xlink:href="#DejaVuSans-6f" x="107.080078"/>
       <use xlink:href="#DejaVuSans-72" x="168.261719"/>
       <use xlink:href="#DejaVuSans-65" x="207.125"/>
       <use xlink:href="#DejaVuSans-31" x="268.648438"/>
      </g>
     </g>
    </g>
    <g id="xtick_2">
     <g id="line2d_2">
      <path d="M 234.742975 192.159381 
L 398.443762 192.159381 
" clip-path="url(#pa858e4dec7)" style="fill: none; stroke: #b0b0b0; stroke-width: 0.8; stroke-linecap: square"/>
     </g>
     <g id="text_2">
      <!-- score2 -->
      <g transform="translate(412.443762 196.298444) scale(0.15 -0.15)">
       <defs>
        <path id="DejaVuSans-32" d="M 1228 531 
L 3431 531 
L 3431 0 
L 469 0 
L 469 531 
Q 828 903 1448 1529 
Q 2069 2156 2228 2338 
Q 2531 2678 2651 2914 
Q 2772 3150 2772 3378 
Q 2772 3750 2511 3984 
Q 2250 4219 1831 4219 
Q 1534 4219 1204 4116 
Q 875 4013 500 3803 
L 500 4441 
Q 881 4594 1212 4672 
Q 1544 4750 1819 4750 
Q 2544 4750 2975 4387 
Q 3406 4025 3406 3419 
Q 3406 3131 3298 2873 
Q 3191 2616 2906 2266 
Q 2828 2175 2409 1742 
Q 1991 1309 1228 531 
z
" transform="scale(0.015625)"/>
       </defs>
       <use xlink:href="#DejaVuSans-73"/>
       <use xlink:href="#DejaVuSans-63" x="52.099609"/>
       <use xlink:href="#DejaVuSans-6f" x="107.080078"/>
       <use xlink:href="#DejaVuSans-72" x="168.261719"/>
       <use xlink:href="#DejaVuSans-65" x="207.125"/>
       <use xlink:href="#DejaVuSans-32" x="268.648438"/>
      </g>
     </g>
    </g>
    <g id="xtick_3">
     <g id="line2d_3">
      <path d="M 234.742975 192.159381 
L 234.742975 355.860169 
" clip-path="url(#pa858e4dec7)" style="fill: none; stroke: #b0b0b0; stroke-width: 0.8; stroke-linecap: square"/>
     </g>
     <g id="text_3">
      <!-- score3 -->
      <g transform="translate(209.821881 373.999231) scale(0.15 -0.15)">
       <defs>
        <path id="DejaVuSans-33" d="M 2597 2516 
Q 3050 2419 3304 2112 
Q 3559 1806 3559 1356 
Q 3559 666 3084 287 
Q 2609 -91 1734 -91 
Q 1441 -91 1130 -33 
Q 819 25 488 141 
L 488 750 
Q 750 597 1062 519 
Q 1375 441 1716 441 
Q 2309 441 2620 675 
Q 2931 909 2931 1356 
Q 2931 1769 2642 2001 
Q 2353 2234 1838 2234 
L 1294 2234 
L 1294 2753 
L 1863 2753 
Q 2328 2753 2575 2939 
Q 2822 3125 2822 3475 
Q 2822 3834 2567 4026 
Q 2313 4219 1838 4219 
Q 1578 4219 1281 4162 
Q 984 4106 628 3988 
L 628 4550 
Q 988 4650 1302 4700 
Q 1616 4750 1894 4750 
Q 2613 4750 3031 4423 
Q 3450 4097 3450 3541 
Q 3450 3153 3228 2886 
Q 3006 2619 2597 2516 
z
" transform="scale(0.015625)"/>
       </defs>
       <use xlink:href="#DejaVuSans-73"/>
       <use xlink:href="#DejaVuSans-63" x="52.099609"/>
       <use xlink:href="#DejaVuSans-6f" x="107.080078"/>
       <use xlink:href="#DejaVuSans-72" x="168.261719"/>
       <use xlink:href="#DejaVuSans-65" x="207.125"/>
       <use xlink:href="#DejaVuSans-33" x="268.648438"/>
      </g>
     </g>
    </g>
    <g id="xtick_4">
     <g id="line2d_4">
      <path d="M 234.742975 192.159381 
L 71.042187 192.159381 
" clip-path="url(#pa858e4dec7)" style="fill: none; stroke: #b0b0b0; stroke-width: 0.8; stroke-linecap: square"/>
     </g>
     <g id="text_4">
      <!-- score4 -->
      <g transform="translate(7.2 196.298444) scale(0.15 -0.15)">
       <defs>
        <path id="DejaVuSans-34" d="M 2419 4116 
L 825 1625 
L 2419 1625 
L 2419 4116 
z
M 2253 4666 
L 3047 4666 
L 3047 1625 
L 3713 1625 
L 3713 1100 
L 3047 1100 
L 3047 0 
L 2419 0 
L 2419 1100 
L 313 1100 
L 313 1709 
L 2253 4666 
z
" transform="scale(0.015625)"/>
       </defs>
       <use xlink:href="#DejaVuSans-73"/>
       <use xlink:href="#DejaVuSans-63" x="52.099609"/>
       <use xlink:href="#DejaVuSans-6f" x="107.080078"/>
       <use xlink:href="#DejaVuSans-72" x="168.261719"/>
       <use xlink:href="#DejaVuSans-65" x="207.125"/>
       <use xlink:href="#DejaVuSans-34" x="268.648438"/>
      </g>
     </g>
    </g>
   </g>
   <g id="matplotlib.axis_2">
    <g id="ytick_1">
     <g id="line2d_5">
      <path d="M 234.742975 186.096389 
C 235.53916 186.096389 236.327603 186.25322 237.063182 186.557907 
C 237.79876 186.862594 238.46717 187.309211 239.030158 187.872198 
C 239.593145 188.435186 240.039762 189.103596 240.344449 189.839175 
C 240.649136 190.574753 240.805967 191.363196 240.805967 192.159381 
C 240.805967 192.955566 240.649136 193.744009 240.344449 194.479588 
C 240.039762 195.215167 239.593145 195.883576 239.030158 196.446564 
C 238.46717 197.009552 237.79876 197.456169 237.063182 197.760855 
C 236.327603 198.065542 235.53916 198.222373 234.742975 198.222373 
C 233.94679 198.222373 233.158347 198.065542 232.422768 197.760855 
C 231.687189 197.456169 231.01878 197.009552 230.455792 196.446564 
C 229.892804 195.883576 229.446187 195.215167 229.141501 194.479588 
C 228.836814 193.744009 228.679983 192.955566 228.679983 192.159381 
C 228.679983 191.363196 228.836814 190.574753 229.141501 189.839175 
C 229.446187 189.103596 229.892804 188.435186 230.455792 187.872198 
C 231.01878 187.309211 231.687189 186.862594 232.422768 186.557907 
C 233.158347 186.25322 233.94679 186.096389 234.742975 186.096389 
" clip-path="url(#pa858e4dec7)" style="fill: none; stroke: #b0b0b0; stroke-width: 0.8; stroke-linecap: square"/>
     </g>
     <g id="text_5">
      <!-- 2.0 -->
      <g style="fill: #0000ff" transform="translate(239.030158 184.752667) scale(0.15 -0.15)">
       <defs>
        <path id="DejaVuSans-2e" d="M 684 794 
L 1344 794 
L 1344 0 
L 684 0 
L 684 794 
z
" transform="scale(0.015625)"/>
        <path id="DejaVuSans-30" d="M 2034 4250 
Q 1547 4250 1301 3770 
Q 1056 3291 1056 2328 
Q 1056 1369 1301 889 
Q 1547 409 2034 409 
Q 2525 409 2770 889 
Q 3016 1369 3016 2328 
Q 3016 3291 2770 3770 
Q 2525 4250 2034 4250 
z
M 2034 4750 
Q 2819 4750 3233 4129 
Q 3647 3509 3647 2328 
Q 3647 1150 3233 529 
Q 2819 -91 2034 -91 
Q 1250 -91 836 529 
Q 422 1150 422 2328 
Q 422 3509 836 4129 
Q 1250 4750 2034 4750 
z
" transform="scale(0.015625)"/>
       </defs>
       <use xlink:href="#DejaVuSans-32"/>
       <use xlink:href="#DejaVuSans-2e" x="63.623047"/>
       <use xlink:href="#DejaVuSans-30" x="95.410156"/>
      </g>
     </g>
    </g>
    <g id="ytick_2">
     <g id="line2d_6">
      <path d="M 234.742975 146.68694 
C 240.714361 146.68694 246.627683 147.863173 252.144525 150.148324 
C 257.661366 152.433474 262.674439 155.783102 266.896846 160.00551 
C 271.119254 164.227918 274.468882 169.24099 276.754032 174.757831 
C 279.039183 180.274673 280.215416 186.187995 280.215416 192.159381 
C 280.215416 198.130767 279.039183 204.044089 276.754032 209.560931 
C 274.468882 215.077772 271.119254 220.090845 266.896846 224.313253 
C 262.674439 228.53566 257.661366 231.885288 252.144525 234.170439 
C 246.627683 236.455589 240.714361 237.631822 234.742975 237.631822 
C 228.771589 237.631822 222.858267 236.455589 217.341425 234.170439 
C 211.824584 231.885288 206.811511 228.53566 202.589104 224.313253 
C 198.366696 220.090845 195.017068 215.077772 192.731917 209.560931 
C 190.446767 204.044089 189.270534 198.130767 189.270534 192.159381 
C 189.270534 186.187995 190.446767 180.274673 192.731917 174.757831 
C 195.017068 169.24099 198.366696 164.227918 202.589104 160.00551 
C 206.811511 155.783102 211.824584 152.433474 217.341425 150.148324 
C 222.858267 147.863173 228.771589 146.68694 234.742975 146.68694 
" clip-path="url(#pa858e4dec7)" style="fill: none; stroke: #b0b0b0; stroke-width: 0.8; stroke-linecap: square"/>
     </g>
     <g id="text_6">
      <!-- 15.0 -->
      <g style="fill: #0000ff" transform="translate(266.896846 156.885979) scale(0.15 -0.15)">
       <defs>
        <path id="DejaVuSans-35" d="M 691 4666 
L 3169 4666 
L 3169 4134 
L 1269 4134 
L 1269 2991 
Q 1406 3038 1543 3061 
Q 1681 3084 1819 3084 
Q 2600 3084 3056 2656 
Q 3513 2228 3513 1497 
Q 3513 744 3044 326 
Q 2575 -91 1722 -91 
Q 1428 -91 1123 -41 
Q 819 9 494 109 
L 494 744 
Q 775 591 1075 516 
Q 1375 441 1709 441 
Q 2250 441 2565 725 
Q 2881 1009 2881 1497 
Q 2881 1984 2565 2268 
Q 2250 2553 1709 2553 
Q 1456 2553 1204 2497 
Q 953 2441 691 2322 
L 691 4666 
z
" transform="scale(0.015625)"/>
       </defs>
       <use xlink:href="#DejaVuSans-31"/>
       <use xlink:href="#DejaVuSans-35" x="63.623047"/>
       <use xlink:href="#DejaVuSans-2e" x="127.246094"/>
       <use xlink:href="#DejaVuSans-30" x="159.033203"/>
      </g>
     </g>
    </g>
    <g id="ytick_3">
     <g id="line2d_7">
      <path d="M 234.742975 107.277491 
C 245.889563 107.277491 256.927764 109.473126 267.225868 113.738741 
C 277.523972 118.004355 286.881707 124.256994 294.763535 132.138821 
C 302.645362 140.020649 308.898001 149.378384 313.163616 159.676488 
C 317.42923 169.974592 319.624865 181.012794 319.624865 192.159381 
C 319.624865 203.305969 317.42923 214.34417 313.163616 224.642274 
C 308.898001 234.940378 302.645362 244.298113 294.763535 252.179941 
C 286.881707 260.061769 277.523972 266.314407 267.225868 270.580022 
C 256.927764 274.845636 245.889563 277.041271 234.742975 277.041271 
C 223.596387 277.041271 212.558186 274.845636 202.260082 270.580022 
C 191.961978 266.314407 182.604243 260.061769 174.722415 252.179941 
C 166.840587 244.298113 160.587949 234.940378 156.322334 224.642274 
C 152.05672 214.34417 149.861085 203.305969 149.861085 192.159381 
C 149.861085 181.012794 152.05672 169.974592 156.322334 159.676488 
C 160.587949 149.378384 166.840587 140.020649 174.722415 132.138821 
C 182.604243 124.256994 191.961978 118.004355 202.260082 113.738741 
C 212.558186 109.473126 223.596387 107.277491 234.742975 107.277491 
" clip-path="url(#pa858e4dec7)" style="fill: none; stroke: #b0b0b0; stroke-width: 0.8; stroke-linecap: square"/>
     </g>
     <g id="text_7">
      <!-- 28.0 -->
      <g style="fill: #0000ff" transform="translate(294.763535 129.01929) scale(0.15 -0.15)">
       <defs>
        <path id="DejaVuSans-38" d="M 2034 2216 
Q 1584 2216 1326 1975 
Q 1069 1734 1069 1313 
Q 1069 891 1326 650 
Q 1584 409 2034 409 
Q 2484 409 2743 651 
Q 3003 894 3003 1313 
Q 3003 1734 2745 1975 
Q 2488 2216 2034 2216 
z
M 1403 2484 
Q 997 2584 770 2862 
Q 544 3141 544 3541 
Q 544 4100 942 4425 
Q 1341 4750 2034 4750 
Q 2731 4750 3128 4425 
Q 3525 4100 3525 3541 
Q 3525 3141 3298 2862 
Q 3072 2584 2669 2484 
Q 3125 2378 3379 2068 
Q 3634 1759 3634 1313 
Q 3634 634 3220 271 
Q 2806 -91 2034 -91 
Q 1263 -91 848 271 
Q 434 634 434 1313 
Q 434 1759 690 2068 
Q 947 2378 1403 2484 
z
M 1172 3481 
Q 1172 3119 1398 2916 
Q 1625 2713 2034 2713 
Q 2441 2713 2670 2916 
Q 2900 3119 2900 3481 
Q 2900 3844 2670 4047 
Q 2441 4250 2034 4250 
Q 1625 4250 1398 4047 
Q 1172 3844 1172 3481 
z
" transform="scale(0.015625)"/>
       </defs>
       <use xlink:href="#DejaVuSans-32"/>
       <use xlink:href="#DejaVuSans-38" x="63.623047"/>
       <use xlink:href="#DejaVuSans-2e" x="127.246094"/>
       <use xlink:href="#DejaVuSans-30" x="159.033203"/>
      </g>
     </g>
    </g>
    <g id="ytick_4">
     <g id="line2d_8">
      <path d="M 234.742975 67.868043 
C 251.064764 67.868043 267.227844 71.083079 282.307211 77.329157 
C 297.386578 83.575236 311.088976 92.730885 322.630223 104.272133 
C 334.171471 115.813381 343.32712 129.515778 349.573199 144.595145 
C 355.819277 159.674512 359.034313 175.837592 359.034313 192.159381 
C 359.034313 208.48117 355.819277 224.64425 349.573199 239.723617 
C 343.32712 254.802984 334.171471 268.505382 322.630223 280.04663 
C 311.088976 291.587877 297.386578 300.743527 282.307211 306.989605 
C 267.227844 313.235683 251.064764 316.45072 234.742975 316.45072 
C 218.421186 316.45072 202.258106 313.235683 187.178739 306.989605 
C 172.099372 300.743527 158.396974 291.587877 146.855727 280.04663 
C 135.314479 268.505382 126.158829 254.802984 119.912751 239.723617 
C 113.666673 224.64425 110.451636 208.48117 110.451636 192.159381 
C 110.451636 175.837592 113.666673 159.674512 119.912751 144.595145 
C 126.158829 129.515778 135.314479 115.813381 146.855727 104.272133 
C 158.396974 92.730885 172.099372 83.575236 187.178739 77.329157 
C 202.258106 71.083079 218.421186 67.868043 234.742975 67.868043 
" clip-path="url(#pa858e4dec7)" style="fill: none; stroke: #b0b0b0; stroke-width: 0.8; stroke-linecap: square"/>
     </g>
     <g id="text_8">
      <!-- 41.0 -->
      <g style="fill: #0000ff" transform="translate(322.630223 101.152602) scale(0.15 -0.15)">
       <use xlink:href="#DejaVuSans-34"/>
       <use xlink:href="#DejaVuSans-31" x="63.623047"/>
       <use xlink:href="#DejaVuSans-2e" x="127.246094"/>
       <use xlink:href="#DejaVuSans-30" x="159.033203"/>
      </g>
     </g>
    </g>
    <g id="ytick_5">
     <g id="line2d_9">
      <path d="M 234.742975 28.458594 
C 256.239965 28.458594 277.527925 32.693032 297.388554 40.919574 
C 317.249184 49.146116 335.296244 61.204777 350.496912 76.405444 
C 365.697579 91.606112 377.75624 109.653172 385.982782 129.513802 
C 394.209324 149.374431 398.443762 170.662391 398.443762 192.159381 
C 398.443762 213.656372 394.209324 234.944331 385.982782 254.80496 
C 377.75624 274.66559 365.697579 292.71265 350.496912 307.913318 
C 335.296244 323.113986 317.249184 335.172646 297.388554 343.399188 
C 277.527925 351.62573 256.239965 355.860169 234.742975 355.860169 
C 213.245984 355.860169 191.958025 351.62573 172.097396 343.399188 
C 152.236766 335.172646 134.189706 323.113986 118.989038 307.913318 
C 103.78837 292.71265 91.72971 274.66559 83.503168 254.80496 
C 75.276626 234.944331 71.042187 213.656372 71.042187 192.159381 
C 71.042187 170.662391 75.276626 149.374431 83.503168 129.513802 
C 91.72971 109.653172 103.78837 91.606112 118.989038 76.405444 
C 134.189706 61.204777 152.236766 49.146116 172.097396 40.919574 
C 191.958025 32.693032 213.245984 28.458594 234.742975 28.458594 
" clip-path="url(#pa858e4dec7)" style="fill: none; stroke: #b0b0b0; stroke-width: 0.8; stroke-linecap: square"/>
     </g>
     <g id="text_9">
      <!-- 54.0 -->
      <g style="fill: #0000ff" transform="translate(350.496912 73.285913) scale(0.15 -0.15)">
       <use xlink:href="#DejaVuSans-35"/>
       <use xlink:href="#DejaVuSans-34" x="63.623047"/>
       <use xlink:href="#DejaVuSans-2e" x="127.246094"/>
       <use xlink:href="#DejaVuSans-30" x="159.033203"/>
      </g>
     </g>
    </g>
   </g>
   <g id="line2d_10">
    <path d="M 234.742975 76.962531 
L 322.656361 192.159381 
L 234.742975 216.41135 
L 183.207542 192.159381 
L 234.742975 76.962531 
" clip-path="url(#pa858e4dec7)" style="fill: none; stroke-dasharray: 7.4,3.2; stroke-dashoffset: 0; stroke: #ff0000; stroke-width: 2"/>
   </g>
   <g id="line2d_11">
    <path d="M 234.742975 187.612137 
L 265.057936 192.159381 
L 234.742975 310.387728 
L 180.176046 192.159381 
L 234.742975 187.612137 
" clip-path="url(#pa858e4dec7)" style="fill: none; stroke-dasharray: 7.4,3.2; stroke-dashoffset: 0; stroke: #ff00ff; stroke-width: 2"/>
   </g>
   <g id="line2d_12">
    <path d="M 234.742975 101.214499 
L 262.026439 192.159381 
L 234.742975 261.883791 
L 98.325652 192.159381 
L 234.742975 101.214499 
" clip-path="url(#pa858e4dec7)" style="fill: none; stroke-dasharray: 7.4,3.2; stroke-dashoffset: 0; stroke: #000000; stroke-width: 2"/>
   </g>
   <g id="line2d_13">
    <path d="M 234.742975 180.033397 
L 337.813841 192.159381 
L 234.742975 264.915287 
L 71.042187 192.159381 
L 234.742975 180.033397 
" clip-path="url(#pa858e4dec7)" style="fill: none; stroke-dasharray: 7.4,3.2; stroke-dashoffset: 0; stroke: #0000ff; stroke-width: 2"/>
   </g>
   <g id="patch_7">
    <path d="M 234.742975 28.458594 
C 213.245984 28.458594 191.958025 32.693032 172.097396 40.919574 
C 152.236766 49.146116 134.189706 61.204777 118.989038 76.405444 
C 103.78837 91.606112 91.72971 109.653172 83.503168 129.513802 
C 75.276626 149.374431 71.042187 170.662391 71.042187 192.159381 
C 71.042187 213.656372 75.276626 234.944331 83.503168 254.80496 
C 91.72971 274.66559 103.78837 292.71265 118.989038 307.913318 
C 134.189706 323.113986 152.236766 335.172646 172.097396 343.399188 
C 191.958025 351.62573 213.245984 355.860169 234.742975 355.860169 
C 256.239965 355.860169 277.527925 351.62573 297.388554 343.399188 
C 317.249184 335.172646 335.296244 323.113986 350.496912 307.913318 
C 365.697579 292.71265 377.75624 274.66559 385.982782 254.80496 
C 394.209324 234.944331 398.443762 213.656372 398.443762 192.159381 
C 398.443762 170.662391 394.209324 149.374431 385.982782 129.513802 
C 377.75624 109.653172 365.697579 91.606112 350.496912 76.405444 
C 335.296244 61.204777 317.249184 49.146116 297.388554 40.919574 
C 277.527925 32.693032 256.239965 28.458594 234.742975 28.458594 
" style="fill: none; stroke: #000000; stroke-width: 0.8; stroke-linejoin: miter; stroke-linecap: square"/>
   </g>
   <g id="legend_1">
    <g id="patch_8">
     <path d="M 30.80172 403.175011 
L 95.382345 403.175011 
Q 97.782345 403.175011 97.782345 400.775011 
L 97.782345 331.520011 
Q 97.782345 329.120011 95.382345 329.120011 
L 30.80172 329.120011 
Q 28.40172 329.120011 28.40172 331.520011 
L 28.40172 400.775011 
Q 28.40172 403.175011 30.80172 403.175011 
z
" style="fill: #ffffff; opacity: 0.8; stroke: #cccccc; stroke-linejoin: miter"/>
    </g>
    <g id="line2d_14">
     <path d="M 33.20172 338.838136 
L 45.20172 338.838136 
L 57.20172 338.838136 
" style="fill: none; stroke-dasharray: 7.4,3.2; stroke-dashoffset: 0; stroke: #ff0000; stroke-width: 2"/>
    </g>
    <g id="text_10">
     <!-- SVM -->
     <g transform="translate(66.80172 343.038136) scale(0.12 -0.12)">
      <defs>
       <path id="DejaVuSans-53" d="M 3425 4513 
L 3425 3897 
Q 3066 4069 2747 4153 
Q 2428 4238 2131 4238 
Q 1616 4238 1336 4038 
Q 1056 3838 1056 3469 
Q 1056 3159 1242 3001 
Q 1428 2844 1947 2747 
L 2328 2669 
Q 3034 2534 3370 2195 
Q 3706 1856 3706 1288 
Q 3706 609 3251 259 
Q 2797 -91 1919 -91 
Q 1588 -91 1214 -16 
Q 841 59 441 206 
L 441 856 
Q 825 641 1194 531 
Q 1563 422 1919 422 
Q 2459 422 2753 634 
Q 3047 847 3047 1241 
Q 3047 1584 2836 1778 
Q 2625 1972 2144 2069 
L 1759 2144 
Q 1053 2284 737 2584 
Q 422 2884 422 3419 
Q 422 4038 858 4394 
Q 1294 4750 2059 4750 
Q 2388 4750 2728 4690 
Q 3069 4631 3425 4513 
z
" transform="scale(0.015625)"/>
       <path id="DejaVuSans-56" d="M 1831 0 
L 50 4666 
L 709 4666 
L 2188 738 
L 3669 4666 
L 4325 4666 
L 2547 0 
L 1831 0 
z
" transform="scale(0.015625)"/>
       <path id="DejaVuSans-4d" d="M 628 4666 
L 1569 4666 
L 2759 1491 
L 3956 4666 
L 4897 4666 
L 4897 0 
L 4281 0 
L 4281 4097 
L 3078 897 
L 2444 897 
L 1241 4097 
L 1241 0 
L 628 0 
L 628 4666 
z
" transform="scale(0.015625)"/>
      </defs>
      <use xlink:href="#DejaVuSans-53"/>
      <use xlink:href="#DejaVuSans-56" x="63.476562"/>
      <use xlink:href="#DejaVuSans-4d" x="131.884766"/>
     </g>
    </g>
    <g id="line2d_15">
     <path d="M 33.20172 356.451886 
L 45.20172 356.451886 
L 57.20172 356.451886 
" style="fill: none; stroke-dasharray: 7.4,3.2; stroke-dashoffset: 0; stroke: #ff00ff; stroke-width: 2"/>
    </g>
    <g id="text_11">
     <!-- ANN -->
     <g transform="translate(66.80172 360.651886) scale(0.12 -0.12)">
      <defs>
       <path id="DejaVuSans-41" d="M 2188 4044 
L 1331 1722 
L 3047 1722 
L 2188 4044 
z
M 1831 4666 
L 2547 4666 
L 4325 0 
L 3669 0 
L 3244 1197 
L 1141 1197 
L 716 0 
L 50 0 
L 1831 4666 
z
" transform="scale(0.015625)"/>
       <path id="DejaVuSans-4e" d="M 628 4666 
L 1478 4666 
L 3547 763 
L 3547 4666 
L 4159 4666 
L 4159 0 
L 3309 0 
L 1241 3903 
L 1241 0 
L 628 0 
L 628 4666 
z
" transform="scale(0.015625)"/>
      </defs>
      <use xlink:href="#DejaVuSans-41"/>
      <use xlink:href="#DejaVuSans-4e" x="68.408203"/>
      <use xlink:href="#DejaVuSans-4e" x="143.212891"/>
     </g>
    </g>
    <g id="line2d_16">
     <path d="M 33.20172 374.065636 
L 45.20172 374.065636 
L 57.20172 374.065636 
" style="fill: none; stroke-dasharray: 7.4,3.2; stroke-dashoffset: 0; stroke: #000000; stroke-width: 2"/>
    </g>
    <g id="text_12">
     <!-- FA -->
     <g transform="translate(66.80172 378.265636) scale(0.12 -0.12)">
      <defs>
       <path id="DejaVuSans-46" d="M 628 4666 
L 3309 4666 
L 3309 4134 
L 1259 4134 
L 1259 2759 
L 3109 2759 
L 3109 2228 
L 1259 2228 
L 1259 0 
L 628 0 
L 628 4666 
z
" transform="scale(0.015625)"/>
      </defs>
      <use xlink:href="#DejaVuSans-46"/>
      <use xlink:href="#DejaVuSans-41" x="48.394531"/>
     </g>
    </g>
    <g id="line2d_17">
     <path d="M 33.20172 391.679386 
L 45.20172 391.679386 
L 57.20172 391.679386 
" style="fill: none; stroke-dasharray: 7.4,3.2; stroke-dashoffset: 0; stroke: #0000ff; stroke-width: 2"/>
    </g>
    <g id="text_13">
     <!-- GA -->
     <g transform="translate(66.80172 395.879386) scale(0.12 -0.12)">
      <defs>
       <path id="DejaVuSans-47" d="M 3809 666 
L 3809 1919 
L 2778 1919 
L 2778 2438 
L 4434 2438 
L 4434 434 
Q 4069 175 3628 42 
Q 3188 -91 2688 -91 
Q 1594 -91 976 548 
Q 359 1188 359 2328 
Q 359 3472 976 4111 
Q 1594 4750 2688 4750 
Q 3144 4750 3555 4637 
Q 3966 4525 4313 4306 
L 4313 3634 
Q 3963 3931 3569 4081 
Q 3175 4231 2741 4231 
Q 1884 4231 1454 3753 
Q 1025 3275 1025 2328 
Q 1025 1384 1454 906 
Q 1884 428 2741 428 
Q 3075 428 3337 486 
Q 3600 544 3809 666 
z
" transform="scale(0.015625)"/>
      </defs>
      <use xlink:href="#DejaVuSans-47"/>
      <use xlink:href="#DejaVuSans-41" x="77.490234"/>
     </g>
    </g>
   </g>
  </g>
 </g>
 <defs>
  <clipPath id="pa858e4dec7">
   <path d="M 398.443762 192.159381 
C 398.443762 170.662391 394.209324 149.374431 385.982782 129.513802 
C 377.75624 109.653172 365.697579 91.606112 350.496912 76.405444 
C 335.296244 61.204777 317.249184 49.146116 297.388554 40.919574 
C 277.527925 32.693032 256.239965 28.458594 234.742975 28.458594 
C 213.245984 28.458594 191.958025 32.693032 172.097396 40.919574 
C 152.236766 49.146116 134.189706 61.204777 118.989038 76.405444 
C 103.78837 91.606112 91.72971 109.653172 83.503168 129.513802 
C 75.276626 149.374431 71.042187 170.662391 71.042187 192.159381 
C 71.042187 213.656372 75.276626 234.944331 83.503168 254.80496 
C 91.72971 274.66559 103.78837 292.71265 118.989038 307.913318 
C 134.189706 323.113986 152.236766 335.172646 172.097396 343.399188 
C 191.958025 351.62573 213.245984 355.860169 234.742975 355.860169 
C 256.239965 355.860169 277.527925 351.62573 297.388554 343.399188 
C 317.249184 335.172646 335.296244 323.113986 350.496912 307.913318 
C 365.697579 292.71265 377.75624 274.66559 385.982782 254.80496 
C 394.209324 234.944331 398.443762 213.656372 398.443762 192.159381 
M 234.742975 192.159381 
C 234.742975 192.159381 234.742975 192.159381 234.742975 192.159381 
C 234.742975 192.159381 234.742975 192.159381 234.742975 192.159381 
C 234.742975 192.159381 234.742975 192.159381 234.742975 192.159381 
C 234.742975 192.159381 234.742975 192.159381 234.742975 192.159381 
C 234.742975 192.159381 234.742975 192.159381 234.742975 192.159381 
C 234.742975 192.159381 234.742975 192.159381 234.742975 192.159381 
C 234.742975 192.159381 234.742975 192.159381 234.742975 192.159381 
C 234.742975 192.159381 234.742975 192.159381 234.742975 192.159381 
C 234.742975 192.159381 234.742975 192.159381 234.742975 192.159381 
C 234.742975 192.159381 234.742975 192.159381 234.742975 192.159381 
C 234.742975 192.159381 234.742975 192.159381 234.742975 192.159381 
C 234.742975 192.159381 234.742975 192.159381 234.742975 192.159381 
C 234.742975 192.159381 234.742975 192.159381 234.742975 192.159381 
C 234.742975 192.159381 234.742975 192.159381 234.742975 192.159381 
C 234.742975 192.159381 234.742975 192.159381 234.742975 192.159381 
C 234.742975 192.159381 234.742975 192.159381 234.742975 192.159381 
z
"/>
  </clipPath>
 </defs>
</svg>
