<?xml version="1.0" encoding="utf-8" standalone="no"?>
<!DOCTYPE svg PUBLIC "-//W3C//DTD SVG 1.1//EN"
  "http://www.w3.org/Graphics/SVG/1.1/DTD/svg11.dtd">
<svg xmlns:xlink="http://www.w3.org/1999/xlink" width="327.123967pt" height="283.050007pt" viewBox="0 0 327.123967 283.050007" xmlns="http://www.w3.org/2000/svg" version="1.1">
 <metadata>
  <rdf:RDF xmlns:dc="http://purl.org/dc/elements/1.1/" xmlns:cc="http://creativecommons.org/ns#" xmlns:rdf="http://www.w3.org/1999/02/22-rdf-syntax-ns#">
   <cc:Work>
    <dc:type rdf:resource="http://purl.org/dc/dcmitype/StillImage"/>
    <dc:date>2023-07-16T17:25:56.022045</dc:date>
    <dc:format>image/svg+xml</dc:format>
    <dc:creator>
     <cc:Agent>
      <dc:title>Matplotlib v3.7.1, https://matplotlib.org/</dc:title>
     </cc:Agent>
    </dc:creator>
   </cc:Work>
  </rdf:RDF>
 </metadata>
 <defs>
  <style type="text/css">*{stroke-linejoin: round; stroke-linecap: butt}</style>
 </defs>
 <g id="figure_1">
  <g id="patch_1">
   <path d="M 0 283.050007 
L 327.123967 283.050007 
L 327.123967 0 
L 0 0 
L 0 283.050007 
z
" style="fill: none"/>
  </g>
  <g id="axes_1">
   <g id="patch_2">
    <path d="M 272.695842 135.172921 
C 272.695842 120.841594 269.872883 106.649621 264.388521 93.409201 
C 258.90416 80.168782 250.865053 68.137408 240.731275 58.00363 
C 230.597496 47.869851 218.566122 39.830744 205.325703 34.346383 
C 192.085283 28.862021 177.89331 26.039062 163.561983 26.039062 
C 149.230656 26.039062 135.038683 28.862021 121.798264 34.346383 
C 108.557844 39.830744 96.526471 47.869851 86.392692 58.00363 
C 76.258914 68.137408 68.219807 80.168782 62.735445 93.409201 
C 57.251084 106.649621 54.428125 120.841594 54.428125 135.172921 
C 54.428125 149.504248 57.251084 163.696221 62.735445 176.93664 
C 68.219807 190.17706 76.258914 202.208434 86.392692 212.342212 
C 96.526471 222.47599 108.557844 230.515097 121.798264 235.999459 
C 135.038683 241.48382 149.230656 244.306779 163.561983 244.306779 
C 177.89331 244.306779 192.085283 241.48382 205.325703 235.999459 
C 218.566122 230.515097 230.597496 222.47599 240.731275 212.342212 
C 250.865053 202.208434 258.90416 190.17706 264.388521 176.93664 
C 269.872883 163.696221 272.695842 149.504248 272.695842 135.172921 
M 163.561983 135.172921 
C 163.561983 135.172921 163.561983 135.172921 163.561983 135.172921 
C 163.561983 135.172921 163.561983 135.172921 163.561983 135.172921 
C 163.561983 135.172921 163.561983 135.172921 163.561983 135.172921 
C 163.561983 135.172921 163.561983 135.172921 163.561983 135.172921 
C 163.561983 135.172921 163.561983 135.172921 163.561983 135.172921 
C 163.561983 135.172921 163.561983 135.172921 163.561983 135.172921 
C 163.561983 135.172921 163.561983 135.172921 163.561983 135.172921 
C 163.561983 135.172921 163.561983 135.172921 163.561983 135.172921 
C 163.561983 135.172921 163.561983 135.172921 163.561983 135.172921 
C 163.561983 135.172921 163.561983 135.172921 163.561983 135.172921 
C 163.561983 135.172921 163.561983 135.172921 163.561983 135.172921 
C 163.561983 135.172921 163.561983 135.172921 163.561983 135.172921 
C 163.561983 135.172921 163.561983 135.172921 163.561983 135.172921 
C 163.561983 135.172921 163.561983 135.172921 163.561983 135.172921 
C 163.561983 135.172921 163.561983 135.172921 163.561983 135.172921 
C 163.561983 135.172921 163.561983 135.172921 163.561983 135.172921 
L 163.561983 135.172921 
z
" style="fill: none"/>
   </g>
   <g id="patch_3">
    <path d="M 163.561983 58.375021 
L 222.170907 135.172921 
L 163.561983 151.3409 
L 129.205028 135.172921 
z
" clip-path="url(#pf17a05c237)" style="fill: #ff0000; opacity: 0.05"/>
   </g>
   <g id="patch_4">
    <path d="M 163.561983 132.141425 
L 183.771957 135.172921 
L 163.561983 213.991818 
L 127.184031 135.172921 
z
" clip-path="url(#pf17a05c237)" style="fill: #00ff00; opacity: 0.05"/>
   </g>
   <g id="patch_5">
    <path d="M 163.561983 74.543 
L 181.75096 135.172921 
L 163.561983 181.65586 
L 72.617101 135.172921 
z
" clip-path="url(#pf17a05c237)" style="fill: #0000ff; opacity: 0.05"/>
   </g>
   <g id="patch_6">
    <path d="M 163.561983 127.088931 
L 232.275894 135.172921 
L 163.561983 183.676858 
L 54.428125 135.172921 
z
" clip-path="url(#pf17a05c237)" style="fill: #ff8c00; opacity: 0.05"/>
   </g>
   <g id="matplotlib.axis_1">
    <g id="xtick_1">
     <g id="line2d_1">
      <path d="M 163.561983 135.172921 
L 163.561983 26.039062 
" clip-path="url(#pf17a05c237)" style="fill: none; stroke: #b0b0b0; stroke-width: 0.8; stroke-linecap: square"/>
     </g>
     <g id="text_1">
      <!-- score1 -->
      <g transform="translate(146.947921 14.798437) scale(0.1 -0.1)">
       <defs>
        <path id="DejaVuSans-73" d="M 2834 3397 
L 2834 2853 
Q 2591 2978 2328 3040 
Q 2066 3103 1784 3103 
Q 1356 3103 1142 2972 
Q 928 2841 928 2578 
Q 928 2378 1081 2264 
Q 1234 2150 1697 2047 
L 1894 2003 
Q 2506 1872 2764 1633 
Q 3022 1394 3022 966 
Q 3022 478 2636 193 
Q 2250 -91 1575 -91 
Q 1294 -91 989 -36 
Q 684 19 347 128 
L 347 722 
Q 666 556 975 473 
Q 1284 391 1588 391 
Q 1994 391 2212 530 
Q 2431 669 2431 922 
Q 2431 1156 2273 1281 
Q 2116 1406 1581 1522 
L 1381 1569 
Q 847 1681 609 1914 
Q 372 2147 372 2553 
Q 372 3047 722 3315 
Q 1072 3584 1716 3584 
Q 2034 3584 2315 3537 
Q 2597 3491 2834 3397 
z
" transform="scale(0.015625)"/>
        <path id="DejaVuSans-63" d="M 3122 3366 
L 3122 2828 
Q 2878 2963 2633 3030 
Q 2388 3097 2138 3097 
Q 1578 3097 1268 2742 
Q 959 2388 959 1747 
Q 959 1106 1268 751 
Q 1578 397 2138 397 
Q 2388 397 2633 464 
Q 2878 531 3122 666 
L 3122 134 
Q 2881 22 2623 -34 
Q 2366 -91 2075 -91 
Q 1284 -91 818 406 
Q 353 903 353 1747 
Q 353 2603 823 3093 
Q 1294 3584 2113 3584 
Q 2378 3584 2631 3529 
Q 2884 3475 3122 3366 
z
" transform="scale(0.015625)"/>
        <path id="DejaVuSans-6f" d="M 1959 3097 
Q 1497 3097 1228 2736 
Q 959 2375 959 1747 
Q 959 1119 1226 758 
Q 1494 397 1959 397 
Q 2419 397 2687 759 
Q 2956 1122 2956 1747 
Q 2956 2369 2687 2733 
Q 2419 3097 1959 3097 
z
M 1959 3584 
Q 2709 3584 3137 3096 
Q 3566 2609 3566 1747 
Q 3566 888 3137 398 
Q 2709 -91 1959 -91 
Q 1206 -91 779 398 
Q 353 888 353 1747 
Q 353 2609 779 3096 
Q 1206 3584 1959 3584 
z
" transform="scale(0.015625)"/>
        <path id="DejaVuSans-72" d="M 2631 2963 
Q 2534 3019 2420 3045 
Q 2306 3072 2169 3072 
Q 1681 3072 1420 2755 
Q 1159 2438 1159 1844 
L 1159 0 
L 581 0 
L 581 3500 
L 1159 3500 
L 1159 2956 
Q 1341 3275 1631 3429 
Q 1922 3584 2338 3584 
Q 2397 3584 2469 3576 
Q 2541 3569 2628 3553 
L 2631 2963 
z
" transform="scale(0.015625)"/>
        <path id="DejaVuSans-65" d="M 3597 1894 
L 3597 1613 
L 953 1613 
Q 991 1019 1311 708 
Q 1631 397 2203 397 
Q 2534 397 2845 478 
Q 3156 559 3463 722 
L 3463 178 
Q 3153 47 2828 -22 
Q 2503 -91 2169 -91 
Q 1331 -91 842 396 
Q 353 884 353 1716 
Q 353 2575 817 3079 
Q 1281 3584 2069 3584 
Q 2775 3584 3186 3129 
Q 3597 2675 3597 1894 
z
M 3022 2063 
Q 3016 2534 2758 2815 
Q 2500 3097 2075 3097 
Q 1594 3097 1305 2825 
Q 1016 2553 972 2059 
L 3022 2063 
z
" transform="scale(0.015625)"/>
        <path id="DejaVuSans-31" d="M 794 531 
L 1825 531 
L 1825 4091 
L 703 3866 
L 703 4441 
L 1819 4666 
L 2450 4666 
L 2450 531 
L 3481 531 
L 3481 0 
L 794 0 
L 794 531 
z
" transform="scale(0.015625)"/>
       </defs>
       <use xlink:href="#DejaVuSans-73"/>
       <use xlink:href="#DejaVuSans-63" x="52.099609"/>
       <use xlink:href="#DejaVuSans-6f" x="107.080078"/>
       <use xlink:href="#DejaVuSans-72" x="168.261719"/>
       <use xlink:href="#DejaVuSans-65" x="207.125"/>
       <use xlink:href="#DejaVuSans-31" x="268.648438"/>
      </g>
     </g>
    </g>
    <g id="xtick_2">
     <g id="line2d_2">
      <path d="M 163.561983 135.172921 
L 272.695842 135.172921 
" clip-path="url(#pf17a05c237)" style="fill: none; stroke: #b0b0b0; stroke-width: 0.8; stroke-linecap: square"/>
     </g>
     <g id="text_2">
      <!-- score2 -->
      <g transform="translate(286.695842 137.932296) scale(0.1 -0.1)">
       <defs>
        <path id="DejaVuSans-32" d="M 1228 531 
L 3431 531 
L 3431 0 
L 469 0 
L 469 531 
Q 828 903 1448 1529 
Q 2069 2156 2228 2338 
Q 2531 2678 2651 2914 
Q 2772 3150 2772 3378 
Q 2772 3750 2511 3984 
Q 2250 4219 1831 4219 
Q 1534 4219 1204 4116 
Q 875 4013 500 3803 
L 500 4441 
Q 881 4594 1212 4672 
Q 1544 4750 1819 4750 
Q 2544 4750 2975 4387 
Q 3406 4025 3406 3419 
Q 3406 3131 3298 2873 
Q 3191 2616 2906 2266 
Q 2828 2175 2409 1742 
Q 1991 1309 1228 531 
z
" transform="scale(0.015625)"/>
       </defs>
       <use xlink:href="#DejaVuSans-73"/>
       <use xlink:href="#DejaVuSans-63" x="52.099609"/>
       <use xlink:href="#DejaVuSans-6f" x="107.080078"/>
       <use xlink:href="#DejaVuSans-72" x="168.261719"/>
       <use xlink:href="#DejaVuSans-65" x="207.125"/>
       <use xlink:href="#DejaVuSans-32" x="268.648438"/>
      </g>
     </g>
    </g>
    <g id="xtick_3">
     <g id="line2d_3">
      <path d="M 163.561983 135.172921 
L 163.561983 244.306779 
" clip-path="url(#pf17a05c237)" style="fill: none; stroke: #b0b0b0; stroke-width: 0.8; stroke-linecap: square"/>
     </g>
     <g id="text_3">
      <!-- score3 -->
      <g transform="translate(146.947921 261.066154) scale(0.1 -0.1)">
       <defs>
        <path id="DejaVuSans-33" d="M 2597 2516 
Q 3050 2419 3304 2112 
Q 3559 1806 3559 1356 
Q 3559 666 3084 287 
Q 2609 -91 1734 -91 
Q 1441 -91 1130 -33 
Q 819 25 488 141 
L 488 750 
Q 750 597 1062 519 
Q 1375 441 1716 441 
Q 2309 441 2620 675 
Q 2931 909 2931 1356 
Q 2931 1769 2642 2001 
Q 2353 2234 1838 2234 
L 1294 2234 
L 1294 2753 
L 1863 2753 
Q 2328 2753 2575 2939 
Q 2822 3125 2822 3475 
Q 2822 3834 2567 4026 
Q 2313 4219 1838 4219 
Q 1578 4219 1281 4162 
Q 984 4106 628 3988 
L 628 4550 
Q 988 4650 1302 4700 
Q 1616 4750 1894 4750 
Q 2613 4750 3031 4423 
Q 3450 4097 3450 3541 
Q 3450 3153 3228 2886 
Q 3006 2619 2597 2516 
z
" transform="scale(0.015625)"/>
       </defs>
       <use xlink:href="#DejaVuSans-73"/>
       <use xlink:href="#DejaVuSans-63" x="52.099609"/>
       <use xlink:href="#DejaVuSans-6f" x="107.080078"/>
       <use xlink:href="#DejaVuSans-72" x="168.261719"/>
       <use xlink:href="#DejaVuSans-65" x="207.125"/>
       <use xlink:href="#DejaVuSans-33" x="268.648438"/>
      </g>
     </g>
    </g>
    <g id="xtick_4">
     <g id="line2d_4">
      <path d="M 163.561983 135.172921 
L 54.428125 135.172921 
" clip-path="url(#pf17a05c237)" style="fill: none; stroke: #b0b0b0; stroke-width: 0.8; stroke-linecap: square"/>
     </g>
     <g id="text_4">
      <!-- score4 -->
      <g transform="translate(7.2 137.932296) scale(0.1 -0.1)">
       <defs>
        <path id="DejaVuSans-34" d="M 2419 4116 
L 825 1625 
L 2419 1625 
L 2419 4116 
z
M 2253 4666 
L 3047 4666 
L 3047 1625 
L 3713 1625 
L 3713 1100 
L 3047 1100 
L 3047 0 
L 2419 0 
L 2419 1100 
L 313 1100 
L 313 1709 
L 2253 4666 
z
" transform="scale(0.015625)"/>
       </defs>
       <use xlink:href="#DejaVuSans-73"/>
       <use xlink:href="#DejaVuSans-63" x="52.099609"/>
       <use xlink:href="#DejaVuSans-6f" x="107.080078"/>
       <use xlink:href="#DejaVuSans-72" x="168.261719"/>
       <use xlink:href="#DejaVuSans-65" x="207.125"/>
       <use xlink:href="#DejaVuSans-34" x="268.648438"/>
      </g>
     </g>
    </g>
   </g>
   <g id="matplotlib.axis_2">
    <g id="ytick_1">
     <g id="line2d_5">
      <path d="M 163.561983 114.962947 
C 166.215933 114.962947 168.844076 115.485717 171.296005 116.50134 
C 173.747935 117.516962 175.975967 119.005686 177.852593 120.882311 
C 179.729218 122.758937 181.217942 124.986969 182.233564 127.438899 
C 183.249187 129.890828 183.771957 132.518971 183.771957 135.172921 
C 183.771957 137.82687 183.249187 140.455013 182.233564 142.906943 
C 181.217942 145.358872 179.729218 147.586905 177.852593 149.46353 
C 175.975967 151.340156 173.747935 152.828879 171.296005 153.844502 
C 168.844076 154.860124 166.215933 155.382895 163.561983 155.382895 
C 160.908034 155.382895 158.279891 154.860124 155.827961 153.844502 
C 153.376032 152.828879 151.147999 151.340156 149.271374 149.46353 
C 147.394748 147.586905 145.906025 145.358872 144.890402 142.906943 
C 143.87478 140.455013 143.35201 137.82687 143.35201 135.172921 
C 143.35201 132.518971 143.87478 129.890828 144.890402 127.438899 
C 145.906025 124.986969 147.394748 122.758937 149.271374 120.882311 
C 151.147999 119.005686 153.376032 117.516962 155.827961 116.50134 
C 158.279891 115.485717 160.908034 114.962947 163.561983 114.962947 
" clip-path="url(#pf17a05c237)" style="fill: none; stroke: #b0b0b0; stroke-width: 0.8; stroke-linecap: square"/>
     </g>
     <g id="text_5">
      <!-- 10 -->
      <g style="fill: #0000ff" transform="translate(177.852593 118.802624) scale(0.1 -0.1)">
       <defs>
        <path id="DejaVuSans-30" d="M 2034 4250 
Q 1547 4250 1301 3770 
Q 1056 3291 1056 2328 
Q 1056 1369 1301 889 
Q 1547 409 2034 409 
Q 2525 409 2770 889 
Q 3016 1369 3016 2328 
Q 3016 3291 2770 3770 
Q 2525 4250 2034 4250 
z
M 2034 4750 
Q 2819 4750 3233 4129 
Q 3647 3509 3647 2328 
Q 3647 1150 3233 529 
Q 2819 -91 2034 -91 
Q 1250 -91 836 529 
Q 422 1150 422 2328 
Q 422 3509 836 4129 
Q 1250 4750 2034 4750 
z
" transform="scale(0.015625)"/>
       </defs>
       <use xlink:href="#DejaVuSans-31"/>
       <use xlink:href="#DejaVuSans-30" x="63.623047"/>
      </g>
     </g>
    </g>
    <g id="ytick_2">
     <g id="line2d_6">
      <path d="M 163.561983 94.752973 
C 168.869882 94.752973 174.126168 95.798514 179.030028 97.829759 
C 183.933887 99.861004 188.389951 102.838451 192.143202 106.591702 
C 195.896454 110.344953 198.873901 114.801017 200.905145 119.704877 
C 202.93639 124.608736 203.981931 129.865022 203.981931 135.172921 
C 203.981931 140.48082 202.93639 145.737106 200.905145 150.640965 
C 198.873901 155.544824 195.896454 160.000888 192.143202 163.75414 
C 188.389951 167.507391 183.933887 170.484838 179.030028 172.516083 
C 174.126168 174.547328 168.869882 175.592868 163.561983 175.592868 
C 158.254084 175.592868 152.997798 174.547328 148.093939 172.516083 
C 143.19008 170.484838 138.734016 167.507391 134.980764 163.75414 
C 131.227513 160.000888 128.250066 155.544824 126.218821 150.640965 
C 124.187576 145.737106 123.142036 140.48082 123.142036 135.172921 
C 123.142036 129.865022 124.187576 124.608736 126.218821 119.704877 
C 128.250066 114.801017 131.227513 110.344953 134.980764 106.591702 
C 138.734016 102.838451 143.19008 99.861004 148.093939 97.829759 
C 152.997798 95.798514 158.254084 94.752973 163.561983 94.752973 
" clip-path="url(#pf17a05c237)" style="fill: none; stroke: #b0b0b0; stroke-width: 0.8; stroke-linecap: square"/>
     </g>
     <g id="text_6">
      <!-- 20 -->
      <g style="fill: #0000ff" transform="translate(192.143202 104.512014) scale(0.1 -0.1)">
       <use xlink:href="#DejaVuSans-32"/>
       <use xlink:href="#DejaVuSans-30" x="63.623047"/>
      </g>
     </g>
    </g>
    <g id="ytick_3">
     <g id="line2d_7">
      <path d="M 163.561983 74.543 
C 171.523832 74.543 179.408261 76.11131 186.76405 79.158177 
C 194.119838 82.205045 200.803935 86.671215 206.433812 92.301092 
C 212.063689 97.930969 216.529859 104.615066 219.576727 111.970854 
C 222.623594 119.326643 224.191905 127.211072 224.191905 135.172921 
C 224.191905 143.134769 222.623594 151.019198 219.576727 158.374987 
C 216.529859 165.730776 212.063689 172.414872 206.433812 178.044749 
C 200.803935 183.674626 194.119838 188.140797 186.76405 191.187664 
C 179.408261 194.234532 171.523832 195.802842 163.561983 195.802842 
C 155.600135 195.802842 147.715706 194.234532 140.359917 191.187664 
C 133.004128 188.140797 126.320032 183.674626 120.690155 178.044749 
C 115.060278 172.414872 110.594107 165.730776 107.54724 158.374987 
C 104.500373 151.019198 102.932062 143.134769 102.932062 135.172921 
C 102.932062 127.211072 104.500373 119.326643 107.54724 111.970854 
C 110.594107 104.615066 115.060278 97.930969 120.690155 92.301092 
C 126.320032 86.671215 133.004128 82.205045 140.359917 79.158177 
C 147.715706 76.11131 155.600135 74.543 163.561983 74.543 
" clip-path="url(#pf17a05c237)" style="fill: none; stroke: #b0b0b0; stroke-width: 0.8; stroke-linecap: square"/>
     </g>
     <g id="text_7">
      <!-- 30 -->
      <g style="fill: #0000ff" transform="translate(206.433812 90.221405) scale(0.1 -0.1)">
       <use xlink:href="#DejaVuSans-33"/>
       <use xlink:href="#DejaVuSans-30" x="63.623047"/>
      </g>
     </g>
    </g>
    <g id="ytick_4">
     <g id="line2d_8">
      <path d="M 163.561983 54.333026 
C 174.177781 54.333026 184.690354 56.424106 194.498072 60.486596 
C 204.30579 64.549086 213.217919 70.50398 220.724421 78.010483 
C 228.230924 85.516985 234.185818 94.429114 238.248308 104.236832 
C 242.310798 114.044551 244.401878 124.557123 244.401878 135.172921 
C 244.401878 145.788719 242.310798 156.301291 238.248308 166.109009 
C 234.185818 175.916728 228.230924 184.828856 220.724421 192.335359 
C 213.217919 199.841861 204.30579 205.796755 194.498072 209.859245 
C 184.690354 213.921735 174.177781 216.012816 163.561983 216.012816 
C 152.946186 216.012816 142.433613 213.921735 132.625895 209.859245 
C 122.818177 205.796755 113.906048 199.841861 106.399545 192.335359 
C 98.893043 184.828856 92.938149 175.916728 88.875659 166.109009 
C 84.813169 156.301291 82.722088 145.788719 82.722088 135.172921 
C 82.722088 124.557123 84.813169 114.044551 88.875659 104.236832 
C 92.938149 94.429114 98.893043 85.516985 106.399545 78.010483 
C 113.906048 70.50398 122.818177 64.549086 132.625895 60.486596 
C 142.433613 56.424106 152.946186 54.333026 163.561983 54.333026 
" clip-path="url(#pf17a05c237)" style="fill: none; stroke: #b0b0b0; stroke-width: 0.8; stroke-linecap: square"/>
     </g>
     <g id="text_8">
      <!-- 40 -->
      <g style="fill: #0000ff" transform="translate(220.724421 75.930795) scale(0.1 -0.1)">
       <use xlink:href="#DejaVuSans-34"/>
       <use xlink:href="#DejaVuSans-30" x="63.623047"/>
      </g>
     </g>
    </g>
    <g id="ytick_5">
     <g id="line2d_9">
      <path d="M 163.561983 34.123052 
C 176.83173 34.123052 189.972446 36.736903 202.232094 41.815015 
C 214.491742 46.893128 225.631902 54.336745 235.015031 63.719873 
C 244.398159 73.103002 251.841776 84.243162 256.919889 96.50281 
C 261.998001 108.762458 264.611852 121.903174 264.611852 135.172921 
C 264.611852 148.442668 261.998001 161.583384 256.919889 173.843031 
C 251.841776 186.102679 244.398159 197.24284 235.015031 206.625968 
C 225.631902 216.009096 214.491742 223.452714 202.232094 228.530826 
C 189.972446 233.608939 176.83173 236.22279 163.561983 236.22279 
C 150.292236 236.22279 137.15152 233.608939 124.891873 228.530826 
C 112.632225 223.452714 101.492064 216.009096 92.108936 206.625968 
C 82.725808 197.24284 75.28219 186.102679 70.204078 173.843031 
C 65.125965 161.583384 62.512115 148.442668 62.512115 135.172921 
C 62.512115 121.903174 65.125965 108.762458 70.204078 96.50281 
C 75.28219 84.243162 82.725808 73.103002 92.108936 63.719873 
C 101.492064 54.336745 112.632225 46.893128 124.891873 41.815015 
C 137.15152 36.736903 150.292236 34.123052 163.561983 34.123052 
" clip-path="url(#pf17a05c237)" style="fill: none; stroke: #b0b0b0; stroke-width: 0.8; stroke-linecap: square"/>
     </g>
     <g id="text_9">
      <!-- 50 -->
      <g style="fill: #0000ff" transform="translate(235.015031 61.640186) scale(0.1 -0.1)">
       <defs>
        <path id="DejaVuSans-35" d="M 691 4666 
L 3169 4666 
L 3169 4134 
L 1269 4134 
L 1269 2991 
Q 1406 3038 1543 3061 
Q 1681 3084 1819 3084 
Q 2600 3084 3056 2656 
Q 3513 2228 3513 1497 
Q 3513 744 3044 326 
Q 2575 -91 1722 -91 
Q 1428 -91 1123 -41 
Q 819 9 494 109 
L 494 744 
Q 775 591 1075 516 
Q 1375 441 1709 441 
Q 2250 441 2565 725 
Q 2881 1009 2881 1497 
Q 2881 1984 2565 2268 
Q 2250 2553 1709 2553 
Q 1456 2553 1204 2497 
Q 953 2441 691 2322 
L 691 4666 
z
" transform="scale(0.015625)"/>
       </defs>
       <use xlink:href="#DejaVuSans-35"/>
       <use xlink:href="#DejaVuSans-30" x="63.623047"/>
      </g>
     </g>
    </g>
   </g>
   <g id="line2d_10">
    <path d="M 163.561983 58.375021 
L 222.170907 135.172921 
L 163.561983 151.3409 
L 129.205028 135.172921 
L 163.561983 58.375021 
" clip-path="url(#pf17a05c237)" style="fill: none; stroke-dasharray: 7.4,3.2; stroke-dashoffset: 0; stroke: #ff0000; stroke-width: 2"/>
   </g>
   <g id="line2d_11">
    <path d="M 163.561983 132.141425 
L 183.771957 135.172921 
L 163.561983 213.991818 
L 127.184031 135.172921 
L 163.561983 132.141425 
" clip-path="url(#pf17a05c237)" style="fill: none; stroke-dasharray: 7.4,3.2; stroke-dashoffset: 0; stroke: #00ff00; stroke-width: 2"/>
   </g>
   <g id="line2d_12">
    <path d="M 163.561983 74.543 
L 181.75096 135.172921 
L 163.561983 181.65586 
L 72.617101 135.172921 
L 163.561983 74.543 
" clip-path="url(#pf17a05c237)" style="fill: none; stroke-dasharray: 7.4,3.2; stroke-dashoffset: 0; stroke: #0000ff; stroke-width: 2"/>
   </g>
   <g id="line2d_13">
    <path d="M 163.561983 127.088931 
L 232.275894 135.172921 
L 163.561983 183.676858 
L 54.428125 135.172921 
L 163.561983 127.088931 
" clip-path="url(#pf17a05c237)" style="fill: none; stroke-dasharray: 7.4,3.2; stroke-dashoffset: 0; stroke: #ff8c00; stroke-width: 2"/>
   </g>
   <g id="patch_7">
    <path d="M 163.561983 26.039062 
C 149.230656 26.039062 135.038683 28.862021 121.798264 34.346383 
C 108.557844 39.830744 96.526471 47.869851 86.392692 58.00363 
C 76.258914 68.137408 68.219807 80.168782 62.735445 93.409201 
C 57.251084 106.649621 54.428125 120.841594 54.428125 135.172921 
C 54.428125 149.504248 57.251084 163.696221 62.735445 176.93664 
C 68.219807 190.17706 76.258914 202.208434 86.392692 212.342212 
C 96.526471 222.47599 108.557844 230.515097 121.798264 235.999459 
C 135.038683 241.48382 149.230656 244.306779 163.561983 244.306779 
C 177.89331 244.306779 192.085283 241.48382 205.325703 235.999459 
C 218.566122 230.515097 230.597496 222.47599 240.731275 212.342212 
C 250.865053 202.208434 258.90416 190.17706 264.388521 176.93664 
C 269.872883 163.696221 272.695842 149.504248 272.695842 135.172921 
C 272.695842 120.841594 269.872883 106.649621 264.388521 93.409201 
C 258.90416 80.168782 250.865053 68.137408 240.731275 58.00363 
C 230.597496 47.869851 218.566122 39.830744 205.325703 34.346383 
C 192.085283 28.862021 177.89331 26.039062 163.561983 26.039062 
" style="fill: none; stroke: #000000; stroke-width: 0.8; stroke-linejoin: miter; stroke-linecap: square"/>
   </g>
   <g id="legend_1">
    <g id="patch_8">
     <path d="M 27.601147 275.850007 
L 70.654897 275.850007 
Q 72.254897 275.850007 72.254897 274.250007 
L 72.254897 228.080007 
Q 72.254897 226.480007 70.654897 226.480007 
L 27.601147 226.480007 
Q 26.001147 226.480007 26.001147 228.080007 
L 26.001147 274.250007 
Q 26.001147 275.850007 27.601147 275.850007 
z
" style="fill: #ffffff; opacity: 0.8; stroke: #cccccc; stroke-linejoin: miter"/>
    </g>
    <g id="line2d_14">
     <path d="M 29.201147 232.958757 
L 37.201147 232.958757 
L 45.201147 232.958757 
" style="fill: none; stroke-dasharray: 7.4,3.2; stroke-dashoffset: 0; stroke: #ff0000; stroke-width: 2"/>
    </g>
    <g id="text_10">
     <!-- SVM -->
     <g transform="translate(51.601147 235.758757) scale(0.08 -0.08)">
      <defs>
       <path id="DejaVuSans-53" d="M 3425 4513 
L 3425 3897 
Q 3066 4069 2747 4153 
Q 2428 4238 2131 4238 
Q 1616 4238 1336 4038 
Q 1056 3838 1056 3469 
Q 1056 3159 1242 3001 
Q 1428 2844 1947 2747 
L 2328 2669 
Q 3034 2534 3370 2195 
Q 3706 1856 3706 1288 
Q 3706 609 3251 259 
Q 2797 -91 1919 -91 
Q 1588 -91 1214 -16 
Q 841 59 441 206 
L 441 856 
Q 825 641 1194 531 
Q 1563 422 1919 422 
Q 2459 422 2753 634 
Q 3047 847 3047 1241 
Q 3047 1584 2836 1778 
Q 2625 1972 2144 2069 
L 1759 2144 
Q 1053 2284 737 2584 
Q 422 2884 422 3419 
Q 422 4038 858 4394 
Q 1294 4750 2059 4750 
Q 2388 4750 2728 4690 
Q 3069 4631 3425 4513 
z
" transform="scale(0.015625)"/>
       <path id="DejaVuSans-56" d="M 1831 0 
L 50 4666 
L 709 4666 
L 2188 738 
L 3669 4666 
L 4325 4666 
L 2547 0 
L 1831 0 
z
" transform="scale(0.015625)"/>
       <path id="DejaVuSans-4d" d="M 628 4666 
L 1569 4666 
L 2759 1491 
L 3956 4666 
L 4897 4666 
L 4897 0 
L 4281 0 
L 4281 4097 
L 3078 897 
L 2444 897 
L 1241 4097 
L 1241 0 
L 628 0 
L 628 4666 
z
" transform="scale(0.015625)"/>
      </defs>
      <use xlink:href="#DejaVuSans-53"/>
      <use xlink:href="#DejaVuSans-56" x="63.476562"/>
      <use xlink:href="#DejaVuSans-4d" x="131.884766"/>
     </g>
    </g>
    <g id="line2d_15">
     <path d="M 29.201147 244.701257 
L 37.201147 244.701257 
L 45.201147 244.701257 
" style="fill: none; stroke-dasharray: 7.4,3.2; stroke-dashoffset: 0; stroke: #00ff00; stroke-width: 2"/>
    </g>
    <g id="text_11">
     <!-- ANN -->
     <g transform="translate(51.601147 247.501257) scale(0.08 -0.08)">
      <defs>
       <path id="DejaVuSans-41" d="M 2188 4044 
L 1331 1722 
L 3047 1722 
L 2188 4044 
z
M 1831 4666 
L 2547 4666 
L 4325 0 
L 3669 0 
L 3244 1197 
L 1141 1197 
L 716 0 
L 50 0 
L 1831 4666 
z
" transform="scale(0.015625)"/>
       <path id="DejaVuSans-4e" d="M 628 4666 
L 1478 4666 
L 3547 763 
L 3547 4666 
L 4159 4666 
L 4159 0 
L 3309 0 
L 1241 3903 
L 1241 0 
L 628 0 
L 628 4666 
z
" transform="scale(0.015625)"/>
      </defs>
      <use xlink:href="#DejaVuSans-41"/>
      <use xlink:href="#DejaVuSans-4e" x="68.408203"/>
      <use xlink:href="#DejaVuSans-4e" x="143.212891"/>
     </g>
    </g>
    <g id="line2d_16">
     <path d="M 29.201147 256.443757 
L 37.201147 256.443757 
L 45.201147 256.443757 
" style="fill: none; stroke-dasharray: 7.4,3.2; stroke-dashoffset: 0; stroke: #0000ff; stroke-width: 2"/>
    </g>
    <g id="text_12">
     <!-- FA -->
     <g transform="translate(51.601147 259.243757) scale(0.08 -0.08)">
      <defs>
       <path id="DejaVuSans-46" d="M 628 4666 
L 3309 4666 
L 3309 4134 
L 1259 4134 
L 1259 2759 
L 3109 2759 
L 3109 2228 
L 1259 2228 
L 1259 0 
L 628 0 
L 628 4666 
z
" transform="scale(0.015625)"/>
      </defs>
      <use xlink:href="#DejaVuSans-46"/>
      <use xlink:href="#DejaVuSans-41" x="48.394531"/>
     </g>
    </g>
    <g id="line2d_17">
     <path d="M 29.201147 268.186257 
L 37.201147 268.186257 
L 45.201147 268.186257 
" style="fill: none; stroke-dasharray: 7.4,3.2; stroke-dashoffset: 0; stroke: #ff8c00; stroke-width: 2"/>
    </g>
    <g id="text_13">
     <!-- GA -->
     <g transform="translate(51.601147 270.986257) scale(0.08 -0.08)">
      <defs>
       <path id="DejaVuSans-47" d="M 3809 666 
L 3809 1919 
L 2778 1919 
L 2778 2438 
L 4434 2438 
L 4434 434 
Q 4069 175 3628 42 
Q 3188 -91 2688 -91 
Q 1594 -91 976 548 
Q 359 1188 359 2328 
Q 359 3472 976 4111 
Q 1594 4750 2688 4750 
Q 3144 4750 3555 4637 
Q 3966 4525 4313 4306 
L 4313 3634 
Q 3963 3931 3569 4081 
Q 3175 4231 2741 4231 
Q 1884 4231 1454 3753 
Q 1025 3275 1025 2328 
Q 1025 1384 1454 906 
Q 1884 428 2741 428 
Q 3075 428 3337 486 
Q 3600 544 3809 666 
z
" transform="scale(0.015625)"/>
      </defs>
      <use xlink:href="#DejaVuSans-47"/>
      <use xlink:href="#DejaVuSans-41" x="77.490234"/>
     </g>
    </g>
   </g>
  </g>
 </g>
 <defs>
  <clipPath id="pf17a05c237">
   <path d="M 272.695842 135.172921 
C 272.695842 120.841594 269.872883 106.649621 264.388521 93.409201 
C 258.90416 80.168782 250.865053 68.137408 240.731275 58.00363 
C 230.597496 47.869851 218.566122 39.830744 205.325703 34.346383 
C 192.085283 28.862021 177.89331 26.039062 163.561983 26.039062 
C 149.230656 26.039062 135.038683 28.862021 121.798264 34.346383 
C 108.557844 39.830744 96.526471 47.869851 86.392692 58.00363 
C 76.258914 68.137408 68.219807 80.168782 62.735445 93.409201 
C 57.251084 106.649621 54.428125 120.841594 54.428125 135.172921 
C 54.428125 149.504248 57.251084 163.696221 62.735445 176.93664 
C 68.219807 190.17706 76.258914 202.208434 86.392692 212.342212 
C 96.526471 222.47599 108.557844 230.515097 121.798264 235.999459 
C 135.038683 241.48382 149.230656 244.306779 163.561983 244.306779 
C 177.89331 244.306779 192.085283 241.48382 205.325703 235.999459 
C 218.566122 230.515097 230.597496 222.47599 240.731275 212.342212 
C 250.865053 202.208434 258.90416 190.17706 264.388521 176.93664 
C 269.872883 163.696221 272.695842 149.504248 272.695842 135.172921 
M 163.561983 135.172921 
C 163.561983 135.172921 163.561983 135.172921 163.561983 135.172921 
C 163.561983 135.172921 163.561983 135.172921 163.561983 135.172921 
C 163.561983 135.172921 163.561983 135.172921 163.561983 135.172921 
C 163.561983 135.172921 163.561983 135.172921 163.561983 135.172921 
C 163.561983 135.172921 163.561983 135.172921 163.561983 135.172921 
C 163.561983 135.172921 163.561983 135.172921 163.561983 135.172921 
C 163.561983 135.172921 163.561983 135.172921 163.561983 135.172921 
C 163.561983 135.172921 163.561983 135.172921 163.561983 135.172921 
C 163.561983 135.172921 163.561983 135.172921 163.561983 135.172921 
C 163.561983 135.172921 163.561983 135.172921 163.561983 135.172921 
C 163.561983 135.172921 163.561983 135.172921 163.561983 135.172921 
C 163.561983 135.172921 163.561983 135.172921 163.561983 135.172921 
C 163.561983 135.172921 163.561983 135.172921 163.561983 135.172921 
C 163.561983 135.172921 163.561983 135.172921 163.561983 135.172921 
C 163.561983 135.172921 163.561983 135.172921 163.561983 135.172921 
C 163.561983 135.172921 163.561983 135.172921 163.561983 135.172921 
z
"/>
  </clipPath>
 </defs>
</svg>
